<?xml version="1.0" standalone="no"?>
<!DOCTYPE svg PUBLIC "-//W3C//DTD SVG 1.1//EN" "http://www.w3.org/Graphics/SVG/1.1/DTD/svg11.dtd">
<svg xmlns="http://www.w3.org/2000/svg" version="1.1" id="Layer_1" x="0px" y="0px" viewBox="0 0 1064 433" style="enable-background:new 0 0 1064 433" xml:space="preserve" width="1064" height="433"><style>.st0{fill:#004C83}.st1{fill:#818284}.st2{fill:#252122;stroke:#252122;stroke-width:0.75;stroke-miterlimit:10}</style><g id="_x23_004c83ff"><path class="st0" d="M398,9c14,0,28,0,42,0c0,77.7,0,155.3,0,233c-14,0-28,0-42,0C398,164.3,398,86.7,398,9z"/><path class="st0" d="M24,11.8c18.1,0,36.1,0,54.2,0c0,1.5,0,3,0,4.5c-4.8,0.3-10,0.9-13.7,4.3c-2.4,2.1-3.3,5.4-3.2,8.5 c0,19,0,38,0,57C61,97.2,64,109,71.6,117.5c9.8,10.2,26.9,11,38.6,3.7c9.6-6.7,13.7-18.9,14.6-30.1c0.2-20,0.1-40,0.2-60.1 c0.1-4.5-1.5-9.3-5.2-12c-3.5-2.6-8.1-2.5-12.3-2.3c0-1.6,0.1-3.3,0.1-4.9c17.2,0.1,34.4,0,51.6,0.1c2.6-0.3,1.1,3.2,1.5,4.6 c-4.7,0-9.9,0.3-13.5,3.8c-2.7,2.5-3.6,6.2-3.5,9.8c0,18.7,0,37.4,0,56.1c-0.5,11.4-3.4,23.1-10.2,32.5c-4.6,6.5-11.3,11.5-18.9,14 c-7.2,2.7-15.1,2.3-22.6,2.9c-12.1,0.9-25-2.1-34-10.5c-10.4-9.3-14.7-23.4-15.6-36.9c-0.7-18.7-0.7-37.4-0.3-56.1 c0-4.5-0.8-9.6-4.4-12.7c-3.9-2.9-9.1-2.7-13.7-3C24,14.8,24,13.3,24,11.8z"/><path class="st0" d="M233.9,11.6c24.4,0,48.7,0,73.1,0c12.7,0.2,25.7,6,32.7,16.9c9.6,14.5,10.4,32.8,8.7,49.6 c-18.9-0.7-38.1-0.3-56.6,3.8c-11.8,2.9-24.1,7.3-32.4,16.6c-5.6,6.1-8.2,14.7-7,22.8c-6.2,0-12.4,0-18.6,0 c0.1-13.8,3.4-28.2,12.2-39.2c7.7-9.7,18.9-16.4,30.9-19.2c20-4.8,40.6-6.5,61.1-7.4c-1.5-6.1-5-11.8-10.1-15.6 c-6.6-4.9-15-6.8-23.1-7c-18.4,0.2-36.7,0-55.1,0.1c-3.7,0-7.5,1.3-9.7,4.3c-3.5,4.7-3.7,10.8-3.4,16.4c-0.7,0-2.1,0-2.8,0 C233.8,39.7,233.9,25.6,233.9,11.6z"/><path class="st0" d="M263.2,102.9c6-7.8,16-11.2,25.5-11.3c-4.2,5.9-9,11.5-11.8,18.2C272.4,107.6,267.8,105.3,263.2,102.9z"/></g><g id="_x23_818284ff"><path class="st1" d="M170,12c6,0,12,0,18,0c0,75.3,0,150.7,0,226c-6,0-12,0-18,0C170,162.7,170,87.3,170,12z"/><path class="st1" d="M198,12c6,0,12,0,18,0c0,75.3,0,150.7,0,226c-6,0-12,0-18,0C198,162.7,198,87.3,198,12z"/><path class="st1" d="M138.2,121.3c1.4-2.5,2.8-5.1,4.3-7.6c0,35.8,0.2,71.5,0.2,107.3c-0.1,4.5,1.4,9.3,5.3,11.9 c3.6,2.7,8.4,2.8,12.7,3.2c-0.1,0.6-0.1,1.8-0.2,2.4c-17.5,0.1-34.9-0.1-52.4,0.1c-0.1-0.7-0.3-2-0.4-2.7c5.1,0.1,11-0.5,14.3-4.9 c4.9-5.9,3.4-14,3.4-21c0-25.1-0.9-50.2,0-75.2C130.6,131.2,135.2,126.8,138.2,121.3z"/><path class="st1" d="M43,113.9c2.5,3.9,4.2,8.2,7.1,11.8c2.7,3.6,6.2,6.5,9.8,9.1c0.8,28.7-0.1,57.4-0.1,86.1 c0.1,5.1,2.4,10.5,7.1,13c3.2,1.8,6.9,1.8,10.4,1.9c0.1,0.9,0.2,1.8,0.3,2.7c-17.5,0-35.1-0.1-52.6,0.1c-0.1-0.7-0.2-2-0.2-2.7 c4.2-0.1,8.7-0.2,12.2-2.7c3.7-2.3,5.5-6.8,5.6-11.1C42.9,186,42.7,150,43,113.9z"/><path class="st1" d="M233.7,128.9c24.1,0,48.2,0,72.3,0c12.4,0,25.2,5.2,32.5,15.5c10.5,14.6,11.3,33.6,9.7,50.9 c-19.3-0.6-38.8-0.3-57.6,4.1c-11.4,2.8-23,7.2-31.1,16c-5.7,6.1-8.6,14.7-7.2,23c-6.2,0.2-12.4,0.1-18.6,0.1 c0.1-14.4,3.8-29.4,13.4-40.6c7.7-9,18.5-15.2,29.9-17.9c20-4.8,40.6-6.4,61.1-7.4c-1.8-6-5-11.8-10.2-15.5c-6.8-5-15.5-6.9-23.9-7 c-18,0.2-36,0.1-54,0.1c-3.6,0-7.4,1.1-9.7,4c-3.7,4.6-4,10.9-3.6,16.5c-0.7,0.1-2.2,0.2-3,0.3C233.6,157.1,233.6,143,233.7,128.9z"/><path class="st1" d="M68,172c16.3,0,32.7,0,49,0c0,3,0,6,0,9c-16.3,0-32.7,0-49,0C68,178,68,175,68,172z"/></g><path class="st0" d="M480.8,10c0,76.7,0,153.3,0,230c191.3,0,382.7,0,574,0c0-76.7,0-153.3,0-230C863.5,10,672.2,10,480.8,10z M578.3,186.4c-0.1,1.1-0.4,2.1-0.7,2.8c-0.3,0.7-0.7,1.2-1.1,1.5c-0.4,0.3-0.9,0.5-1.5,0.5h-57.1c-1.9,0-3.6-0.6-4.9-1.7 c-1.3-1.1-2-3-2-5.6V84.8c0-2.6,0.7-4.4,2-5.6c1.3-1.1,2.9-1.7,4.9-1.7h56.8c0.5,0,1,0.1,1.4,0.4c0.4,0.3,0.8,0.8,1.1,1.5 c0.3,0.7,0.5,1.7,0.7,2.8c0.1,1.1,0.2,2.6,0.2,4.4c0,1.6-0.1,3-0.2,4.2c-0.1,1.1-0.4,2.1-0.7,2.8c-0.3,0.7-0.6,1.2-1.1,1.5 c-0.4,0.3-0.9,0.5-1.4,0.5h-40.6v27.8h34.4c0.5,0,1,0.2,1.5,0.5c0.4,0.3,0.8,0.8,1.1,1.5c0.3,0.7,0.5,1.6,0.7,2.7 c0.1,1.1,0.2,2.5,0.2,4.2c0,1.7-0.1,3.1-0.2,4.2c-0.1,1.1-0.4,2-0.7,2.7c-0.3,0.7-0.7,1.2-1.1,1.5c-0.4,0.3-0.9,0.4-1.5,0.4h-34.4 v32.1h41c0.5,0,1,0.2,1.5,0.5c0.4,0.3,0.8,0.8,1.1,1.5c0.3,0.7,0.5,1.6,0.7,2.8c0.1,1.1,0.2,2.6,0.2,4.3 C578.5,183.9,578.4,185.3,578.3,186.4z M710.7,183.1c0,1.3-0.2,2.5-0.7,3.6c-0.5,1.1-1.1,1.9-1.9,2.6s-1.7,1.2-2.8,1.5 c-1.1,0.3-2.2,0.5-3.3,0.5h-9.8c-2.1,0-3.8-0.2-5.3-0.6c-1.5-0.4-2.9-1.2-4.1-2.2c-1.3-1.1-2.5-2.5-3.6-4.4c-1.2-1.8-2.5-4.2-4-7.2 l-28.3-53.2c-1.6-3.2-3.3-6.6-5-10.2c-1.7-3.7-3.2-7.2-4.6-10.7H637c0.2,4.2,0.4,8.4,0.5,12.6c0.1,4.2,0.2,8.5,0.2,13V188 c0,0.6-0.2,1.1-0.5,1.6c-0.3,0.5-0.9,0.9-1.7,1.2c-0.8,0.3-1.9,0.6-3.2,0.7c-1.3,0.2-3.1,0.3-5.2,0.3c-2.1,0-3.8-0.1-5.1-0.3 c-1.3-0.2-2.4-0.4-3.2-0.7c-0.8-0.3-1.3-0.7-1.6-1.2c-0.3-0.5-0.4-1-0.4-1.6V85.7c0-2.8,0.8-4.8,2.4-6.2c1.6-1.4,3.6-2.1,5.9-2.1 h12.4c2.2,0,4.1,0.2,5.6,0.6c1.5,0.4,2.9,1,4.1,1.9c1.2,0.9,2.3,2.1,3.4,3.6c1.1,1.6,2.1,3.5,3.3,5.8l22.1,41.6 c1.3,2.5,2.6,5,3.8,7.4c1.3,2.4,2.5,4.9,3.6,7.3c1.2,2.4,2.3,4.8,3.4,7.2c1.1,2.3,2.2,4.7,3.3,7h0.1c-0.2-4.1-0.3-8.4-0.4-12.8 c-0.1-4.5-0.1-8.7-0.1-12.7V80.9c0-0.6,0.2-1.1,0.5-1.6c0.4-0.5,0.9-0.9,1.8-1.2c0.8-0.4,1.9-0.6,3.3-0.7c1.3-0.1,3.1-0.2,5.2-0.2 c2,0,3.7,0.1,5,0.2c1.3,0.1,2.4,0.4,3.1,0.7c0.7,0.4,1.2,0.8,1.5,1.2c0.3,0.5,0.4,1,0.4,1.6V183.1z M817.5,172.8 c-2.2,4.5-5.2,8.3-9.1,11.3c-3.8,3-8.3,5.3-13.4,6.8c-5.1,1.5-10.5,2.3-16.3,2.3c-3.9,0-7.6-0.3-10.9-1c-3.4-0.6-6.3-1.4-8.9-2.3 c-2.6-0.9-4.7-1.9-6.5-2.9c-1.7-1-3-1.9-3.7-2.6c-0.8-0.8-1.3-1.9-1.6-3.3c-0.3-1.4-0.5-3.5-0.5-6.2c0-1.8,0.1-3.3,0.2-4.6 c0.1-1.2,0.3-2.2,0.6-3c0.3-0.8,0.6-1.3,1.1-1.6c0.4-0.3,1-0.5,1.5-0.5c0.8,0,2,0.5,3.5,1.5s3.4,2,5.8,3.2c2.3,1.2,5.1,2.2,8.4,3.2 s7,1.5,11.3,1.5c2.8,0,5.3-0.3,7.6-1c2.2-0.7,4.1-1.6,5.7-2.9c1.6-1.2,2.7-2.8,3.6-4.6c0.8-1.8,1.2-3.8,1.2-6.1 c0-2.6-0.7-4.8-2.1-6.6s-3.2-3.5-5.5-4.9c-2.3-1.4-4.8-2.8-7.7-4c-2.9-1.3-5.8-2.6-8.9-4c-3-1.4-6-3-8.9-4.8 c-2.9-1.8-5.4-3.9-7.7-6.4c-2.3-2.5-4.1-5.4-5.5-8.8c-1.4-3.4-2.1-7.5-2.1-12.2c0-5.4,1-10.2,3-14.4s4.7-7.6,8.2-10.3 s7.5-4.8,12.1-6.1c4.7-1.3,9.6-2,14.8-2c2.7,0,5.4,0.2,8.1,0.6c2.7,0.4,5.2,1,7.6,1.7c2.3,0.7,4.4,1.5,6.2,2.4 c1.8,0.9,3,1.6,3.6,2.2c0.6,0.6,1,1.1,1.2,1.5c0.2,0.4,0.4,1,0.5,1.6c0.1,0.7,0.2,1.5,0.3,2.5c0.1,1,0.1,2.3,0.1,3.8 c0,1.7,0,3.1-0.1,4.3c-0.1,1.2-0.2,2.1-0.4,2.9c-0.2,0.8-0.5,1.3-0.9,1.7c-0.4,0.4-0.9,0.5-1.5,0.5c-0.6,0-1.7-0.4-3.1-1.2 c-1.4-0.8-3.1-1.7-5.2-2.7c-2.1-1-4.4-1.8-7.1-2.6c-2.7-0.8-5.7-1.2-8.9-1.2c-2.5,0-4.7,0.3-6.6,0.9c-1.9,0.6-3.4,1.5-4.7,2.5 c-1.3,1.1-2.2,2.4-2.8,3.9c-0.6,1.5-0.9,3.1-0.9,4.8c0,2.5,0.7,4.7,2.1,6.5c1.4,1.8,3.2,3.5,5.5,4.9c2.3,1.4,4.9,2.8,7.9,4 c2.9,1.3,5.9,2.6,9,4c3,1.4,6,3,9,4.8c2.9,1.8,5.5,3.9,7.8,6.4c2.3,2.5,4.1,5.4,5.5,8.8c1.4,3.4,2.1,7.3,2.1,11.9 C820.9,163.1,819.7,168.3,817.5,172.8z M923.7,186.4c-0.1,1.1-0.4,2.1-0.7,2.8c-0.3,0.7-0.7,1.2-1.1,1.5c-0.4,0.3-0.9,0.5-1.5,0.5 h-57.1c-1.9,0-3.6-0.6-4.9-1.7s-2-3-2-5.6V84.8c0-2.6,0.7-4.4,2-5.6s2.9-1.7,4.9-1.7h56.8c0.5,0,1,0.1,1.4,0.4 c0.4,0.3,0.8,0.8,1.1,1.5c0.3,0.7,0.5,1.7,0.7,2.8c0.1,1.1,0.2,2.6,0.2,4.4c0,1.6-0.1,3-0.2,4.2c-0.1,1.1-0.4,2.1-0.7,2.8 c-0.3,0.7-0.6,1.2-1.1,1.5c-0.4,0.3-0.9,0.5-1.4,0.5h-40.6v27.8h34.4c0.5,0,1,0.2,1.5,0.5c0.4,0.3,0.8,0.8,1.1,1.5 c0.3,0.7,0.5,1.6,0.7,2.7c0.1,1.1,0.2,2.5,0.2,4.2c0,1.7-0.1,3.1-0.2,4.2c-0.1,1.1-0.4,2-0.7,2.7c-0.3,0.7-0.7,1.2-1.1,1.5 c-0.4,0.3-0.9,0.4-1.5,0.4h-34.4v32.1h41c0.5,0,1,0.2,1.5,0.5c0.4,0.3,0.8,0.8,1.1,1.5c0.3,0.7,0.5,1.6,0.7,2.8 c0.1,1.1,0.2,2.6,0.2,4.3C923.9,183.9,923.9,185.3,923.7,186.4z M1037.8,91.3c-0.1,1.2-0.4,2.2-0.7,2.9c-0.3,0.7-0.7,1.3-1.1,1.6 s-0.9,0.5-1.5,0.5h-28.5V188c0,0.6-0.2,1.1-0.6,1.6c-0.4,0.5-1,0.8-1.9,1.1c-0.9,0.3-2.1,0.5-3.6,0.7s-3.4,0.3-5.6,0.3 c-2.2,0-4.1-0.1-5.6-0.3s-2.7-0.4-3.6-0.7c-0.9-0.3-1.5-0.7-1.9-1.1c-0.4-0.5-0.6-1-0.6-1.6V96.4h-28.5c-0.6,0-1.1-0.2-1.5-0.5 c-0.4-0.4-0.8-0.9-1.1-1.6c-0.3-0.7-0.5-1.7-0.7-2.9c-0.1-1.2-0.2-2.7-0.2-4.4c0-1.8,0.1-3.3,0.2-4.5c0.1-1.2,0.4-2.2,0.7-2.9 c0.3-0.7,0.6-1.3,1.1-1.6c0.4-0.3,0.9-0.5,1.5-0.5h80.2c0.5,0,1,0.2,1.5,0.5c0.4,0.3,0.8,0.9,1.1,1.6c0.3,0.7,0.5,1.7,0.7,2.9 c0.1,1.2,0.2,2.7,0.2,4.5C1038,88.7,1037.9,90.1,1037.8,91.3z"/><path class="st2" d="M33.2,301.7c0,0.5,0,0.8-0.1,1.2c0,0.3-0.1,0.6-0.2,0.8s-0.2,0.3-0.3,0.4c-0.1,0.1-0.3,0.1-0.4,0.1H16.4 c-0.5,0-1-0.2-1.3-0.5c-0.4-0.3-0.5-0.8-0.5-1.5v-27c0-0.7,0.2-1.2,0.5-1.5c0.4-0.3,0.8-0.5,1.3-0.5h15.7c0.1,0,0.3,0,0.4,0.1 c0.1,0.1,0.2,0.2,0.3,0.4c0.1,0.2,0.1,0.5,0.2,0.8c0,0.3,0.1,0.7,0.1,1.2c0,0.4,0,0.8-0.1,1.1c0,0.3-0.1,0.6-0.2,0.8 c-0.1,0.2-0.2,0.3-0.3,0.4c-0.1,0.1-0.2,0.1-0.4,0.1H20.9v7.6h9.5c0.1,0,0.3,0,0.4,0.1c0.1,0.1,0.2,0.2,0.3,0.4 c0.1,0.2,0.1,0.4,0.2,0.7c0,0.3,0.1,0.7,0.1,1.1c0,0.5,0,0.8-0.1,1.1c0,0.3-0.1,0.5-0.2,0.7s-0.2,0.3-0.3,0.4 c-0.1,0.1-0.3,0.1-0.4,0.1h-9.5v8.7h11.3c0.1,0,0.3,0,0.4,0.1c0.1,0.1,0.2,0.2,0.3,0.4s0.1,0.4,0.2,0.8 C33.1,300.9,33.2,301.2,33.2,301.7z"/><path class="st2" d="M59.8,299.5c0,0.4,0,0.7,0,1c0,0.3-0.1,0.5-0.1,0.7c0,0.2-0.1,0.4-0.2,0.5c-0.1,0.1-0.2,0.3-0.4,0.5 c-0.2,0.2-0.5,0.4-1,0.7c-0.5,0.3-1.1,0.6-1.9,0.8c-0.7,0.3-1.6,0.5-2.5,0.7s-2,0.3-3.1,0.3c-2.2,0-4.1-0.3-5.8-1 c-1.7-0.7-3.2-1.6-4.4-2.9c-1.2-1.3-2.1-2.9-2.8-4.9s-1-4.2-1-6.8c0-2.6,0.4-5,1.1-7c0.7-2,1.7-3.8,3-5.1s2.8-2.4,4.6-3.2 c1.8-0.7,3.8-1.1,5.9-1.1c0.9,0,1.7,0.1,2.5,0.2c0.8,0.1,1.6,0.3,2.2,0.6s1.3,0.5,1.9,0.8c0.5,0.3,0.9,0.6,1.2,0.8 c0.2,0.2,0.4,0.4,0.4,0.5s0.1,0.3,0.2,0.5c0,0.2,0.1,0.5,0.1,0.8c0,0.3,0,0.7,0,1.1c0,0.5,0,0.9,0,1.2c0,0.3-0.1,0.6-0.2,0.8 c-0.1,0.2-0.2,0.4-0.3,0.5s-0.2,0.1-0.4,0.1c-0.2,0-0.5-0.1-0.9-0.4s-0.9-0.6-1.4-0.9c-0.6-0.3-1.3-0.7-2.1-0.9s-1.8-0.4-2.9-0.4 c-1.2,0-2.4,0.3-3.3,0.8c-1,0.5-1.8,1.2-2.5,2.2c-0.7,0.9-1.2,2.1-1.6,3.4c-0.4,1.3-0.5,2.8-0.5,4.5c0,1.8,0.2,3.4,0.6,4.7 c0.4,1.3,0.9,2.4,1.6,3.3s1.6,1.5,2.5,1.9s2.1,0.6,3.4,0.6c1.1,0,2.1-0.1,2.9-0.4c0.8-0.3,1.5-0.6,2.1-0.9c0.6-0.3,1.1-0.6,1.5-0.9 c0.4-0.3,0.7-0.4,0.9-0.4c0.2,0,0.3,0,0.4,0.1c0.1,0.1,0.2,0.2,0.2,0.4c0.1,0.2,0.1,0.5,0.1,0.8C59.8,298.5,59.8,298.9,59.8,299.5z"/><path class="st2" d="M92.2,288.3c0,2.6-0.3,4.9-1,6.9s-1.6,3.7-2.9,5.2c-1.3,1.4-2.9,2.5-4.7,3.2c-1.9,0.7-4.1,1.1-6.5,1.1 c-2.4,0-4.6-0.3-6.4-0.9s-3.3-1.6-4.5-2.9c-1.2-1.3-2.1-2.9-2.7-4.9c-0.6-2-0.9-4.4-0.9-7.1c0-2.5,0.3-4.8,1-6.8 c0.6-2,1.6-3.7,2.9-5.1c1.3-1.4,2.9-2.5,4.7-3.2c1.9-0.8,4.1-1.1,6.6-1.1c2.4,0,4.5,0.3,6.3,0.9s3.3,1.6,4.6,2.9 c1.2,1.3,2.1,2.9,2.8,4.9C91.9,283.3,92.2,285.7,92.2,288.3z M85.5,288.7c0-1.6-0.1-3.1-0.4-4.4c-0.3-1.3-0.7-2.5-1.3-3.4 c-0.6-0.9-1.5-1.7-2.5-2.2s-2.3-0.8-3.9-0.8c-1.6,0-2.9,0.3-3.9,0.9s-1.9,1.4-2.5,2.3c-0.6,1-1.1,2.1-1.4,3.4 c-0.3,1.3-0.4,2.7-0.4,4.1c0,1.7,0.1,3.2,0.4,4.6c0.3,1.3,0.7,2.5,1.3,3.5c0.6,1,1.4,1.7,2.5,2.2c1,0.5,2.3,0.8,3.9,0.8 c1.6,0,2.9-0.3,3.9-0.9c1.1-0.6,1.9-1.4,2.5-2.3s1.1-2.1,1.4-3.5C85.4,291.6,85.5,290.2,85.5,288.7z"/><path class="st2" d="M114.9,301.5c0,0.5,0,0.9-0.1,1.2c0,0.3-0.1,0.6-0.2,0.8c-0.1,0.2-0.2,0.4-0.3,0.5c-0.1,0.1-0.3,0.1-0.4,0.1 H99.5c-0.5,0-1-0.2-1.3-0.5c-0.4-0.3-0.5-0.8-0.5-1.5v-28.1c0-0.2,0.1-0.3,0.2-0.4c0.1-0.1,0.3-0.2,0.5-0.3c0.2-0.1,0.6-0.1,1-0.2 c0.4,0,0.9-0.1,1.5-0.1c0.6,0,1.1,0,1.6,0.1c0.4,0,0.7,0.1,1,0.2c0.2,0.1,0.4,0.2,0.5,0.3c0.1,0.1,0.2,0.3,0.2,0.4V299h9.9 c0.2,0,0.3,0,0.4,0.1c0.1,0.1,0.2,0.2,0.3,0.4c0.1,0.2,0.1,0.5,0.2,0.8S114.9,301.1,114.9,301.5z"/><path class="st2" d="M137.2,301.7c0,0.5,0,0.8-0.1,1.2c0,0.3-0.1,0.6-0.2,0.8s-0.2,0.3-0.3,0.4c-0.1,0.1-0.3,0.1-0.4,0.1h-15.8 c-0.5,0-1-0.2-1.3-0.5c-0.4-0.3-0.5-0.8-0.5-1.5v-27c0-0.7,0.2-1.2,0.5-1.5c0.4-0.3,0.8-0.5,1.3-0.5h15.7c0.1,0,0.3,0,0.4,0.1 c0.1,0.1,0.2,0.2,0.3,0.4c0.1,0.2,0.1,0.5,0.2,0.8c0,0.3,0.1,0.7,0.1,1.2c0,0.4,0,0.8-0.1,1.1c0,0.3-0.1,0.6-0.2,0.8 c-0.1,0.2-0.2,0.3-0.3,0.4c-0.1,0.1-0.2,0.1-0.4,0.1H125v7.6h9.5c0.1,0,0.3,0,0.4,0.1c0.1,0.1,0.2,0.2,0.3,0.4 c0.1,0.2,0.1,0.4,0.2,0.7c0,0.3,0.1,0.7,0.1,1.1c0,0.5,0,0.8-0.1,1.1c0,0.3-0.1,0.5-0.2,0.7s-0.2,0.3-0.3,0.4 c-0.1,0.1-0.3,0.1-0.4,0.1H125v8.7h11.3c0.1,0,0.3,0,0.4,0.1c0.1,0.1,0.2,0.2,0.3,0.4s0.1,0.4,0.2,0.8 C137.2,300.9,137.2,301.2,137.2,301.7z"/><path class="st2" d="M180,302c0,0.4-0.1,0.7-0.2,1s-0.3,0.5-0.5,0.7s-0.5,0.3-0.8,0.4c-0.3,0.1-0.6,0.1-0.9,0.1h-2.7 c-0.6,0-1.1-0.1-1.5-0.2c-0.4-0.1-0.8-0.3-1.1-0.6c-0.3-0.3-0.7-0.7-1-1.2c-0.3-0.5-0.7-1.2-1.1-2l-7.8-14.5 c-0.5-0.9-0.9-1.8-1.4-2.8c-0.5-1-0.9-2-1.3-2.9h0c0.1,1.1,0.1,2.3,0.1,3.4c0,1.1,0,2.3,0,3.5v16.2c0,0.2,0,0.3-0.1,0.4 c-0.1,0.1-0.2,0.2-0.5,0.3c-0.2,0.1-0.5,0.2-0.9,0.2c-0.4,0-0.8,0.1-1.4,0.1c-0.6,0-1,0-1.4-0.1c-0.4,0-0.7-0.1-0.9-0.2 c-0.2-0.1-0.4-0.2-0.4-0.3c-0.1-0.1-0.1-0.3-0.1-0.4v-27.8c0-0.8,0.2-1.3,0.7-1.7s1-0.6,1.6-0.6h3.4c0.6,0,1.1,0.1,1.6,0.2 c0.4,0.1,0.8,0.3,1.1,0.5c0.3,0.2,0.6,0.6,0.9,1s0.6,0.9,0.9,1.6l6.1,11.3c0.4,0.7,0.7,1.4,1.1,2c0.3,0.7,0.7,1.3,1,2 c0.3,0.7,0.6,1.3,0.9,2c0.3,0.6,0.6,1.3,0.9,1.9h0c0-1.1-0.1-2.3-0.1-3.5c0-1.2,0-2.4,0-3.5v-14.5c0-0.2,0-0.3,0.1-0.4 c0.1-0.1,0.3-0.2,0.5-0.3c0.2-0.1,0.5-0.2,0.9-0.2c0.4,0,0.8-0.1,1.4-0.1c0.5,0,1,0,1.4,0.1c0.4,0,0.7,0.1,0.9,0.2 c0.2,0.1,0.3,0.2,0.4,0.3c0.1,0.1,0.1,0.3,0.1,0.4V302z"/><path class="st2" d="M215.1,288.3c0,2.6-0.3,4.9-1,6.9s-1.6,3.7-2.9,5.2c-1.3,1.4-2.9,2.5-4.7,3.2c-1.9,0.7-4.1,1.1-6.5,1.1 c-2.4,0-4.6-0.3-6.4-0.9s-3.3-1.6-4.5-2.9c-1.2-1.3-2.1-2.9-2.7-4.9c-0.6-2-0.9-4.4-0.9-7.1c0-2.5,0.3-4.8,1-6.8 c0.6-2,1.6-3.7,2.9-5.1c1.3-1.4,2.9-2.5,4.7-3.2c1.9-0.8,4.1-1.1,6.6-1.1c2.4,0,4.5,0.3,6.3,0.9s3.3,1.6,4.6,2.9 c1.2,1.3,2.1,2.9,2.8,4.9C214.8,283.3,215.1,285.7,215.1,288.3z M208.4,288.7c0-1.6-0.1-3.1-0.4-4.4c-0.3-1.3-0.7-2.5-1.3-3.4 c-0.6-0.9-1.5-1.7-2.5-2.2s-2.3-0.8-3.9-0.8c-1.6,0-2.9,0.3-3.9,0.9s-1.9,1.4-2.5,2.3c-0.6,1-1.1,2.1-1.4,3.4 c-0.3,1.3-0.4,2.7-0.4,4.1c0,1.7,0.1,3.2,0.4,4.6c0.3,1.3,0.7,2.5,1.3,3.5c0.6,1,1.4,1.7,2.5,2.2c1,0.5,2.3,0.8,3.9,0.8 c1.6,0,2.9-0.3,3.9-0.9c1.1-0.6,1.9-1.4,2.5-2.3s1.1-2.1,1.4-3.5C208.2,291.6,208.4,290.2,208.4,288.7z"/><path class="st2" d="M243.7,303.4c0,0.2,0,0.3-0.1,0.4c-0.1,0.1-0.2,0.2-0.5,0.3c-0.2,0.1-0.6,0.1-1.1,0.2s-1.1,0-1.9,0 c-0.7,0-1.2,0-1.6,0s-0.7-0.1-1-0.2c-0.2-0.1-0.4-0.2-0.5-0.3c-0.1-0.1-0.2-0.3-0.2-0.5l-2.8-6.9c-0.3-0.8-0.7-1.5-1-2.1 s-0.7-1.1-1.1-1.5c-0.4-0.4-0.9-0.7-1.4-0.9s-1.1-0.3-1.8-0.3h-2v11.8c0,0.2-0.1,0.3-0.2,0.4c-0.1,0.1-0.3,0.2-0.5,0.3 c-0.2,0.1-0.6,0.1-1,0.2c-0.4,0-0.9,0.1-1.6,0.1c-0.6,0-1.1,0-1.5-0.1c-0.4,0-0.7-0.1-1-0.2c-0.2-0.1-0.4-0.2-0.5-0.3 c-0.1-0.1-0.1-0.3-0.1-0.4v-28.1c0-0.7,0.2-1.2,0.5-1.5c0.4-0.3,0.8-0.5,1.3-0.5h8.1c0.8,0,1.5,0,2,0c0.5,0,1,0.1,1.5,0.1 c1.3,0.2,2.4,0.5,3.4,0.9c1,0.4,1.9,1,2.6,1.7c0.7,0.7,1.2,1.5,1.6,2.5c0.4,0.9,0.6,2,0.6,3.3c0,1-0.1,2-0.4,2.8 c-0.3,0.9-0.7,1.6-1.2,2.3s-1.2,1.3-1.9,1.7c-0.8,0.5-1.6,0.9-2.6,1.2c0.5,0.2,0.9,0.5,1.3,0.8s0.8,0.7,1.2,1.2 c0.4,0.5,0.7,1,1,1.6c0.3,0.6,0.6,1.2,0.9,2l2.6,6.1c0.2,0.6,0.4,1,0.5,1.3C243.7,303,243.7,303.2,243.7,303.4z M235.5,282.4 c0-1-0.2-1.9-0.7-2.6s-1.2-1.2-2.3-1.5c-0.3-0.1-0.7-0.1-1.1-0.2c-0.4,0-1-0.1-1.7-0.1h-2.9v8.8h3.3c0.9,0,1.7-0.1,2.4-0.3 c0.7-0.2,1.2-0.5,1.7-0.9c0.5-0.4,0.8-0.9,1-1.4S235.5,283,235.5,282.4z"/><path class="st2" d="M285,303.3c0,0.2,0,0.3-0.1,0.4c-0.1,0.1-0.3,0.2-0.5,0.3c-0.2,0.1-0.5,0.1-0.9,0.2c-0.4,0-0.9,0.1-1.5,0.1 c-0.6,0-1.1,0-1.5-0.1c-0.4,0-0.7-0.1-0.9-0.2c-0.2-0.1-0.4-0.2-0.5-0.3c-0.1-0.1-0.1-0.3-0.1-0.4v-25.2h0l-9.1,25.2 c-0.1,0.2-0.2,0.4-0.3,0.5c-0.1,0.1-0.3,0.2-0.6,0.3s-0.6,0.1-1,0.2c-0.4,0-0.9,0-1.4,0s-1,0-1.4-0.1c-0.4,0-0.7-0.1-1-0.2 s-0.4-0.2-0.6-0.3s-0.2-0.3-0.3-0.5l-8.8-25.2h0v25.2c0,0.2,0,0.3-0.1,0.4c-0.1,0.1-0.3,0.2-0.5,0.3c-0.2,0.1-0.6,0.1-0.9,0.2 c-0.4,0-0.9,0.1-1.5,0.1c-0.6,0-1.1,0-1.5-0.1c-0.4,0-0.7-0.1-0.9-0.2c-0.2-0.1-0.4-0.2-0.5-0.3c-0.1-0.1-0.1-0.3-0.1-0.4v-27.6 c0-0.8,0.2-1.4,0.7-1.9c0.4-0.4,1-0.6,1.7-0.6h4.2c0.7,0,1.4,0.1,1.9,0.2c0.5,0.1,1,0.3,1.4,0.6c0.4,0.3,0.7,0.6,1,1.1 c0.3,0.5,0.5,1,0.7,1.7l6.8,18.4h0.1l7-18.4c0.2-0.7,0.4-1.2,0.7-1.7s0.5-0.8,0.9-1.1s0.7-0.5,1.2-0.6c0.5-0.1,1-0.2,1.6-0.2h4.3 c0.4,0,0.8,0.1,1.1,0.2c0.3,0.1,0.6,0.3,0.8,0.5c0.2,0.2,0.4,0.5,0.5,0.8c0.1,0.3,0.2,0.7,0.2,1.1V303.3z"/><path class="st2" d="M317.6,301.8c0.2,0.6,0.3,1,0.4,1.4c0,0.3,0,0.6-0.2,0.8c-0.2,0.2-0.5,0.3-0.9,0.3c-0.5,0-1.1,0.1-1.9,0.1 c-0.8,0-1.5,0-1.9,0c-0.5,0-0.8-0.1-1.1-0.1c-0.2-0.1-0.4-0.2-0.5-0.3s-0.2-0.3-0.2-0.5l-2.1-6.2h-11.8l-2,6.1 c-0.1,0.2-0.1,0.4-0.3,0.6c-0.1,0.2-0.3,0.3-0.5,0.4c-0.2,0.1-0.6,0.1-1,0.2s-1,0-1.7,0c-0.7,0-1.3,0-1.7-0.1 c-0.4,0-0.7-0.2-0.9-0.3c-0.2-0.2-0.2-0.4-0.2-0.8s0.2-0.8,0.4-1.3l9.7-27.5c0.1-0.3,0.2-0.5,0.3-0.7c0.1-0.2,0.3-0.3,0.6-0.4 c0.3-0.1,0.7-0.1,1.2-0.2c0.5,0,1.2,0,2,0c1,0,1.7,0,2.3,0c0.6,0,1,0.1,1.3,0.2c0.3,0.1,0.5,0.2,0.7,0.4c0.1,0.2,0.3,0.4,0.4,0.7 L317.6,301.8z M303.1,279.1L303.1,279.1l-4.5,13.2h8.9L303.1,279.1z"/><path class="st2" d="M339.2,301.5c0,0.5,0,0.9-0.1,1.2c0,0.3-0.1,0.6-0.2,0.8c-0.1,0.2-0.2,0.4-0.3,0.5c-0.1,0.1-0.3,0.1-0.4,0.1 h-14.4c-0.5,0-1-0.2-1.3-0.5c-0.4-0.3-0.5-0.8-0.5-1.5v-28.1c0-0.2,0.1-0.3,0.2-0.4c0.1-0.1,0.3-0.2,0.5-0.3c0.2-0.1,0.6-0.1,1-0.2 c0.4,0,0.9-0.1,1.5-0.1c0.6,0,1.1,0,1.6,0.1c0.4,0,0.7,0.1,1,0.2c0.2,0.1,0.4,0.2,0.5,0.3c0.1,0.1,0.2,0.3,0.2,0.4V299h9.9 c0.2,0,0.3,0,0.4,0.1c0.1,0.1,0.2,0.2,0.3,0.4c0.1,0.2,0.1,0.5,0.2,0.8S339.2,301.1,339.2,301.5z"/><path class="st2" d="M361.6,301.7c0,0.5,0,0.8-0.1,1.2c0,0.3-0.1,0.6-0.2,0.8s-0.2,0.3-0.3,0.4c-0.1,0.1-0.3,0.1-0.4,0.1h-15.8 c-0.5,0-1-0.2-1.3-0.5c-0.4-0.3-0.5-0.8-0.5-1.5v-27c0-0.7,0.2-1.2,0.5-1.5c0.4-0.3,0.8-0.5,1.3-0.5h15.7c0.1,0,0.3,0,0.4,0.1 c0.1,0.1,0.2,0.2,0.3,0.4c0.1,0.2,0.1,0.5,0.2,0.8c0,0.3,0.1,0.7,0.1,1.2c0,0.4,0,0.8-0.1,1.1c0,0.3-0.1,0.6-0.2,0.8 c-0.1,0.2-0.2,0.3-0.3,0.4c-0.1,0.1-0.2,0.1-0.4,0.1h-11.2v7.6h9.5c0.1,0,0.3,0,0.4,0.1c0.1,0.1,0.2,0.2,0.3,0.4 c0.1,0.2,0.1,0.4,0.2,0.7c0,0.3,0.1,0.7,0.1,1.1c0,0.5,0,0.8-0.1,1.1c0,0.3-0.1,0.5-0.2,0.7s-0.2,0.3-0.3,0.4 c-0.1,0.1-0.3,0.1-0.4,0.1h-9.5v8.7h11.3c0.1,0,0.3,0,0.4,0.1c0.1,0.1,0.2,0.2,0.3,0.4s0.1,0.4,0.2,0.8 C361.6,300.9,361.6,301.2,361.6,301.7z"/><path class="st2" d="M397,294.9c0,1.6-0.3,3.1-0.9,4.3c-0.6,1.2-1.4,2.3-2.5,3.1c-1.1,0.8-2.3,1.4-3.7,1.9 c-1.4,0.4-2.9,0.6-4.5,0.6c-1.1,0-2.1-0.1-3-0.3s-1.8-0.4-2.5-0.6s-1.3-0.5-1.8-0.8c-0.5-0.3-0.8-0.5-1-0.7 c-0.2-0.2-0.4-0.5-0.4-0.9c-0.1-0.4-0.1-1-0.1-1.7c0-0.5,0-0.9,0-1.2c0-0.3,0.1-0.6,0.2-0.8c0.1-0.2,0.2-0.4,0.3-0.4 c0.1-0.1,0.3-0.1,0.4-0.1c0.2,0,0.5,0.1,1,0.4c0.4,0.3,0.9,0.6,1.6,0.9c0.6,0.3,1.4,0.6,2.3,0.9c0.9,0.3,1.9,0.4,3.1,0.4 c0.8,0,1.5-0.1,2.1-0.3s1.1-0.4,1.6-0.8c0.4-0.3,0.8-0.8,1-1.2c0.2-0.5,0.3-1,0.3-1.7c0-0.7-0.2-1.3-0.6-1.8 c-0.4-0.5-0.9-0.9-1.5-1.3c-0.6-0.4-1.3-0.8-2.1-1.1c-0.8-0.3-1.6-0.7-2.5-1.1c-0.8-0.4-1.7-0.8-2.5-1.3c-0.8-0.5-1.5-1.1-2.1-1.7 c-0.6-0.7-1.1-1.5-1.5-2.4c-0.4-0.9-0.6-2-0.6-3.3c0-1.5,0.3-2.8,0.8-3.9c0.6-1.1,1.3-2.1,2.3-2.8c0.9-0.7,2.1-1.3,3.3-1.7 s2.6-0.5,4.1-0.5c0.7,0,1.5,0.1,2.2,0.2c0.7,0.1,1.4,0.3,2.1,0.5s1.2,0.4,1.7,0.6s0.8,0.4,1,0.6c0.2,0.2,0.3,0.3,0.3,0.4 c0.1,0.1,0.1,0.3,0.1,0.4c0,0.2,0.1,0.4,0.1,0.7c0,0.3,0,0.6,0,1c0,0.5,0,0.9,0,1.2c0,0.3-0.1,0.6-0.1,0.8 c-0.1,0.2-0.1,0.4-0.2,0.5s-0.2,0.1-0.4,0.1c-0.2,0-0.5-0.1-0.8-0.3c-0.4-0.2-0.9-0.5-1.4-0.7c-0.6-0.3-1.2-0.5-2-0.7 c-0.7-0.2-1.6-0.3-2.5-0.3c-0.7,0-1.3,0.1-1.8,0.3c-0.5,0.2-1,0.4-1.3,0.7s-0.6,0.6-0.8,1.1s-0.3,0.9-0.3,1.3 c0,0.7,0.2,1.3,0.6,1.8c0.4,0.5,0.9,0.9,1.5,1.3c0.6,0.4,1.4,0.8,2.2,1.1c0.8,0.3,1.6,0.7,2.5,1.1c0.8,0.4,1.7,0.8,2.5,1.3 c0.8,0.5,1.5,1.1,2.2,1.7c0.6,0.7,1.1,1.5,1.5,2.4C396.9,292.6,397,293.6,397,294.9z"/><path class="st2" d="M427.5,292.6c0,1.9-0.3,3.6-0.8,5.1c-0.6,1.5-1.4,2.8-2.5,3.8c-1.1,1-2.5,1.8-4.1,2.4 c-1.6,0.5-3.5,0.8-5.6,0.8c-2,0-3.7-0.2-5.3-0.7c-1.6-0.5-2.9-1.2-4-2.2s-1.9-2.2-2.5-3.7c-0.6-1.5-0.9-3.2-0.9-5.2v-18.8 c0-0.2,0-0.3,0.1-0.4s0.3-0.2,0.5-0.3c0.3-0.1,0.6-0.1,1-0.2c0.4,0,0.9-0.1,1.6-0.1c0.6,0,1.1,0,1.5,0.1c0.4,0,0.7,0.1,1,0.2 c0.2,0.1,0.4,0.2,0.5,0.3c0.1,0.1,0.2,0.3,0.2,0.4v18.3c0,1.2,0.2,2.3,0.5,3.2c0.3,0.9,0.7,1.6,1.3,2.2c0.6,0.6,1.3,1,2.1,1.3 c0.8,0.3,1.7,0.4,2.7,0.4c1,0,1.9-0.2,2.7-0.5c0.8-0.3,1.5-0.7,2-1.3c0.5-0.6,1-1.3,1.3-2.2c0.3-0.9,0.4-1.8,0.4-2.9v-18.6 c0-0.2,0-0.3,0.1-0.4c0.1-0.1,0.3-0.2,0.5-0.3c0.2-0.1,0.6-0.1,1-0.2c0.4,0,0.9-0.1,1.5-0.1c0.6,0,1.1,0,1.5,0.1 c0.4,0,0.7,0.1,1,0.2c0.2,0.1,0.4,0.2,0.5,0.3s0.1,0.3,0.1,0.4V292.6z"/><path class="st2" d="M455.9,282.6c0,1.7-0.3,3.3-0.8,4.6c-0.6,1.3-1.4,2.5-2.4,3.4c-1.1,0.9-2.3,1.6-3.9,2.1 c-1.5,0.5-3.3,0.7-5.4,0.7h-2.6v9.9c0,0.2-0.1,0.3-0.2,0.4c-0.1,0.1-0.3,0.2-0.5,0.3c-0.2,0.1-0.6,0.1-1,0.2 c-0.4,0-0.9,0.1-1.6,0.1c-0.6,0-1.1,0-1.5-0.1c-0.4,0-0.7-0.1-1-0.2c-0.2-0.1-0.4-0.2-0.5-0.3c-0.1-0.1-0.1-0.3-0.1-0.4v-27.8 c0-0.8,0.2-1.3,0.6-1.7c0.4-0.4,0.9-0.6,1.6-0.6h7.4c0.7,0,1.5,0,2.1,0.1c0.7,0.1,1.5,0.2,2.4,0.4c0.9,0.2,1.9,0.5,2.9,1 c1,0.5,1.8,1.1,2.5,1.9s1.2,1.6,1.6,2.7C455.7,280.2,455.9,281.4,455.9,282.6z M449.2,283.1c0-1.1-0.2-2-0.6-2.7s-0.9-1.2-1.4-1.6 c-0.6-0.3-1.2-0.5-1.8-0.6c-0.6-0.1-1.3-0.1-1.9-0.1h-2.7v10.5h2.9c1,0,1.9-0.1,2.6-0.4c0.7-0.3,1.2-0.7,1.7-1.1 c0.4-0.5,0.8-1.1,1-1.7C449.1,284.6,449.2,283.9,449.2,283.1z"/><path class="st2" d="M479.4,301.7c0,0.5,0,0.8-0.1,1.2c0,0.3-0.1,0.6-0.2,0.8s-0.2,0.3-0.3,0.4c-0.1,0.1-0.3,0.1-0.4,0.1h-15.8 c-0.5,0-1-0.2-1.3-0.5c-0.4-0.3-0.5-0.8-0.5-1.5v-27c0-0.7,0.2-1.2,0.5-1.5c0.4-0.3,0.8-0.5,1.3-0.5h15.7c0.1,0,0.3,0,0.4,0.1 c0.1,0.1,0.2,0.2,0.3,0.4c0.1,0.2,0.1,0.5,0.2,0.8c0,0.3,0.1,0.7,0.1,1.2c0,0.4,0,0.8-0.1,1.1c0,0.3-0.1,0.6-0.2,0.8 c-0.1,0.2-0.2,0.3-0.3,0.4c-0.1,0.1-0.2,0.1-0.4,0.1h-11.2v7.6h9.5c0.1,0,0.3,0,0.4,0.1c0.1,0.1,0.2,0.2,0.3,0.4 c0.1,0.2,0.1,0.4,0.2,0.7c0,0.3,0.1,0.7,0.1,1.1c0,0.5,0,0.8-0.1,1.1c0,0.3-0.1,0.5-0.2,0.7s-0.2,0.3-0.3,0.4 c-0.1,0.1-0.3,0.1-0.4,0.1h-9.5v8.7h11.3c0.1,0,0.3,0,0.4,0.1c0.1,0.1,0.2,0.2,0.3,0.4s0.1,0.4,0.2,0.8 C479.4,300.9,479.4,301.2,479.4,301.7z M471.9,264.9c0.2-0.2,0.4-0.4,0.6-0.6c0.2-0.1,0.4-0.3,0.7-0.3c0.3-0.1,0.6-0.1,1-0.2 c0.4,0,0.9,0,1.5,0c0.7,0,1.3,0,1.7,0.1s0.7,0.2,0.8,0.4c0.2,0.2,0.2,0.3,0.1,0.5c-0.1,0.2-0.2,0.4-0.5,0.6l-5.4,4.8 c-0.2,0.1-0.3,0.3-0.5,0.4c-0.2,0.1-0.4,0.2-0.6,0.3c-0.2,0.1-0.5,0.1-0.9,0.2s-0.8,0-1.3,0c-0.5,0-1,0-1.3-0.1 c-0.3,0-0.6-0.1-0.7-0.2c-0.1-0.1-0.2-0.2-0.2-0.4c0-0.2,0.1-0.4,0.3-0.6L471.9,264.9z"/><path class="st2" d="M508.3,303.4c0,0.2,0,0.3-0.1,0.4c-0.1,0.1-0.2,0.2-0.5,0.3c-0.2,0.1-0.6,0.1-1.1,0.2s-1.1,0-1.9,0 c-0.7,0-1.2,0-1.6,0s-0.7-0.1-1-0.2c-0.2-0.1-0.4-0.2-0.5-0.3c-0.1-0.1-0.2-0.3-0.2-0.5l-2.8-6.9c-0.3-0.8-0.7-1.5-1-2.1 s-0.7-1.1-1.1-1.5c-0.4-0.4-0.9-0.7-1.4-0.9s-1.1-0.3-1.8-0.3h-2v11.8c0,0.2-0.1,0.3-0.2,0.4c-0.1,0.1-0.3,0.2-0.5,0.3 c-0.2,0.1-0.6,0.1-1,0.2c-0.4,0-0.9,0.1-1.6,0.1c-0.6,0-1.1,0-1.5-0.1c-0.4,0-0.7-0.1-1-0.2c-0.2-0.1-0.4-0.2-0.5-0.3 c-0.1-0.1-0.1-0.3-0.1-0.4v-28.1c0-0.7,0.2-1.2,0.5-1.5c0.4-0.3,0.8-0.5,1.3-0.5h8.1c0.8,0,1.5,0,2,0c0.5,0,1,0.1,1.5,0.1 c1.3,0.2,2.4,0.5,3.4,0.9c1,0.4,1.9,1,2.6,1.7c0.7,0.7,1.2,1.5,1.6,2.5c0.4,0.9,0.6,2,0.6,3.3c0,1-0.1,2-0.4,2.8 c-0.3,0.9-0.7,1.6-1.2,2.3s-1.2,1.3-1.9,1.7c-0.8,0.5-1.6,0.9-2.6,1.2c0.5,0.2,0.9,0.5,1.3,0.8s0.8,0.7,1.2,1.2 c0.4,0.5,0.7,1,1,1.6c0.3,0.6,0.6,1.2,0.9,2l2.6,6.1c0.2,0.6,0.4,1,0.5,1.3C508.3,303,508.3,303.2,508.3,303.4z M500.1,282.4 c0-1-0.2-1.9-0.7-2.6s-1.2-1.2-2.3-1.5c-0.3-0.1-0.7-0.1-1.1-0.2c-0.4,0-1-0.1-1.7-0.1h-2.9v8.8h3.3c0.9,0,1.7-0.1,2.4-0.3 c0.7-0.2,1.2-0.5,1.7-0.9c0.5-0.4,0.8-0.9,1-1.4S500.1,283,500.1,282.4z"/><path class="st2" d="M519.4,303.3c0,0.2-0.1,0.3-0.2,0.4c-0.1,0.1-0.3,0.2-0.5,0.3c-0.2,0.1-0.6,0.1-1,0.2c-0.4,0-0.9,0.1-1.6,0.1 c-0.6,0-1.1,0-1.5-0.1c-0.4,0-0.7-0.1-1-0.2c-0.2-0.1-0.4-0.2-0.5-0.3c-0.1-0.1-0.2-0.3-0.2-0.4v-29.2c0-0.2,0.1-0.3,0.2-0.4 c0.1-0.1,0.3-0.2,0.5-0.3c0.3-0.1,0.6-0.1,1-0.2c0.4,0,0.9-0.1,1.5-0.1c0.6,0,1.1,0,1.6,0.1c0.4,0,0.7,0.1,1,0.2 c0.2,0.1,0.4,0.2,0.5,0.3c0.1,0.1,0.2,0.3,0.2,0.4V303.3z"/><path class="st2" d="M551.9,292.6c0,1.9-0.3,3.6-0.8,5.1c-0.6,1.5-1.4,2.8-2.5,3.8s-2.5,1.8-4.1,2.4c-1.6,0.5-3.5,0.8-5.6,0.8 c-2,0-3.7-0.2-5.3-0.7s-2.9-1.2-4-2.2s-1.9-2.2-2.5-3.7c-0.6-1.5-0.9-3.2-0.9-5.2v-18.8c0-0.2,0-0.3,0.1-0.4s0.3-0.2,0.5-0.3 c0.2-0.1,0.6-0.1,1-0.2c0.4,0,0.9-0.1,1.6-0.1c0.6,0,1.1,0,1.5,0.1c0.4,0,0.7,0.1,1,0.2c0.2,0.1,0.4,0.2,0.5,0.3s0.2,0.3,0.2,0.4 v18.3c0,1.2,0.2,2.3,0.5,3.2c0.3,0.9,0.7,1.6,1.3,2.2c0.6,0.6,1.3,1,2.1,1.3c0.8,0.3,1.7,0.4,2.7,0.4c1,0,1.9-0.2,2.7-0.5 c0.8-0.3,1.5-0.7,2-1.3c0.5-0.6,1-1.3,1.3-2.2c0.3-0.9,0.4-1.8,0.4-2.9v-18.6c0-0.2,0-0.3,0.1-0.4s0.3-0.2,0.5-0.3 c0.2-0.1,0.6-0.1,1-0.2c0.4,0,0.9-0.1,1.5-0.1s1.1,0,1.5,0.1c0.4,0,0.7,0.1,1,0.2c0.2,0.1,0.4,0.2,0.5,0.3s0.1,0.3,0.1,0.4V292.6z"/><path class="st2" d="M582,303.4c0,0.2,0,0.3-0.1,0.4c-0.1,0.1-0.2,0.2-0.5,0.3c-0.2,0.1-0.6,0.1-1.1,0.2c-0.5,0-1.1,0-1.9,0 c-0.7,0-1.2,0-1.6,0s-0.7-0.1-1-0.2c-0.2-0.1-0.4-0.2-0.5-0.3c-0.1-0.1-0.2-0.3-0.2-0.5l-2.8-6.9c-0.3-0.8-0.7-1.5-1-2.1 s-0.7-1.1-1.1-1.5c-0.4-0.4-0.9-0.7-1.4-0.9c-0.5-0.2-1.1-0.3-1.8-0.3h-2v11.8c0,0.2-0.1,0.3-0.2,0.4s-0.3,0.2-0.5,0.3 c-0.2,0.1-0.6,0.1-1,0.2c-0.4,0-0.9,0.1-1.6,0.1c-0.6,0-1.1,0-1.5-0.1c-0.4,0-0.7-0.1-1-0.2c-0.2-0.1-0.4-0.2-0.5-0.3 c-0.1-0.1-0.1-0.3-0.1-0.4v-28.1c0-0.7,0.2-1.2,0.5-1.5c0.4-0.3,0.8-0.5,1.3-0.5h8.1c0.8,0,1.5,0,2,0c0.5,0,1,0.1,1.5,0.1 c1.3,0.2,2.4,0.5,3.4,0.9c1,0.4,1.9,1,2.6,1.7c0.7,0.7,1.2,1.5,1.6,2.5c0.4,0.9,0.6,2,0.6,3.3c0,1-0.1,2-0.4,2.8 c-0.3,0.9-0.7,1.6-1.2,2.3c-0.5,0.7-1.2,1.3-1.9,1.7c-0.8,0.5-1.6,0.9-2.6,1.2c0.5,0.2,0.9,0.5,1.3,0.8c0.4,0.3,0.8,0.7,1.2,1.2 c0.4,0.5,0.7,1,1,1.6c0.3,0.6,0.6,1.2,0.9,2l2.6,6.1c0.2,0.6,0.4,1,0.5,1.3C582,303,582,303.2,582,303.4z M573.8,282.4 c0-1-0.2-1.9-0.7-2.6c-0.5-0.7-1.2-1.2-2.3-1.5c-0.3-0.1-0.7-0.1-1.1-0.2c-0.4,0-1-0.1-1.7-0.1h-2.9v8.8h3.3c0.9,0,1.7-0.1,2.4-0.3 c0.7-0.2,1.2-0.5,1.7-0.9c0.5-0.4,0.8-0.9,1-1.4S573.8,283,573.8,282.4z"/><path class="st2" d="M605.3,301.7c0,0.5,0,0.8-0.1,1.2c0,0.3-0.1,0.6-0.2,0.8c-0.1,0.2-0.2,0.3-0.3,0.4c-0.1,0.1-0.3,0.1-0.4,0.1 h-15.8c-0.5,0-1-0.2-1.3-0.5c-0.4-0.3-0.5-0.8-0.5-1.5v-27c0-0.7,0.2-1.2,0.5-1.5c0.4-0.3,0.8-0.5,1.3-0.5h15.7 c0.1,0,0.3,0,0.4,0.1c0.1,0.1,0.2,0.2,0.3,0.4c0.1,0.2,0.1,0.5,0.2,0.8c0,0.3,0.1,0.7,0.1,1.2c0,0.4,0,0.8-0.1,1.1 c0,0.3-0.1,0.6-0.2,0.8s-0.2,0.3-0.3,0.4c-0.1,0.1-0.2,0.1-0.4,0.1H593v7.6h9.5c0.1,0,0.3,0,0.4,0.1c0.1,0.1,0.2,0.2,0.3,0.4 c0.1,0.2,0.1,0.4,0.2,0.7c0,0.3,0.1,0.7,0.1,1.1c0,0.5,0,0.8-0.1,1.1c0,0.3-0.1,0.5-0.2,0.7s-0.2,0.3-0.3,0.4 c-0.1,0.1-0.3,0.1-0.4,0.1H593v8.7h11.3c0.1,0,0.3,0,0.4,0.1s0.2,0.2,0.3,0.4c0.1,0.2,0.1,0.4,0.2,0.8 C605.3,300.9,605.3,301.2,605.3,301.7z"/><path class="st2" d="M648.2,288.2c0,2.8-0.4,5.3-1.1,7.3c-0.8,2-1.8,3.7-3.2,4.9c-1.4,1.3-3.1,2.2-5.1,2.8c-2,0.6-4.4,0.9-7.2,0.9 h-7.5c-0.5,0-1-0.2-1.3-0.5c-0.4-0.3-0.5-0.8-0.5-1.5v-27c0-0.7,0.2-1.2,0.5-1.5c0.4-0.3,0.8-0.5,1.3-0.5h8.1c2.8,0,5.2,0.3,7.1,1 c1.9,0.6,3.6,1.6,4.9,2.9c1.3,1.3,2.3,2.8,3,4.7C647.9,283.6,648.2,285.8,648.2,288.2z M641.6,288.5c0-1.5-0.2-2.8-0.5-4.1 s-0.9-2.4-1.7-3.3c-0.8-0.9-1.8-1.6-3-2.2c-1.2-0.5-2.8-0.8-4.7-0.8h-3.2v21.1h3.3c1.7,0,3.2-0.2,4.4-0.7c1.2-0.4,2.2-1.1,3-2 s1.4-2,1.8-3.4S641.6,290.2,641.6,288.5z"/><path class="st2" d="M672.1,301.7c0,0.5,0,0.8-0.1,1.2c0,0.3-0.1,0.6-0.2,0.8c-0.1,0.2-0.2,0.3-0.3,0.4c-0.1,0.1-0.3,0.1-0.4,0.1 h-15.8c-0.5,0-1-0.2-1.3-0.5c-0.4-0.3-0.5-0.8-0.5-1.5v-27c0-0.7,0.2-1.2,0.5-1.5c0.4-0.3,0.8-0.5,1.3-0.5h15.7 c0.1,0,0.3,0,0.4,0.1c0.1,0.1,0.2,0.2,0.3,0.4c0.1,0.2,0.1,0.5,0.2,0.8c0,0.3,0.1,0.7,0.1,1.2c0,0.4,0,0.8-0.1,1.1 c0,0.3-0.1,0.6-0.2,0.8s-0.2,0.3-0.3,0.4c-0.1,0.1-0.2,0.1-0.4,0.1h-11.2v7.6h9.5c0.1,0,0.3,0,0.4,0.1c0.1,0.1,0.2,0.2,0.3,0.4 c0.1,0.2,0.1,0.4,0.2,0.7c0,0.3,0.1,0.7,0.1,1.1c0,0.5,0,0.8-0.1,1.1c0,0.3-0.1,0.5-0.2,0.7s-0.2,0.3-0.3,0.4 c-0.1,0.1-0.3,0.1-0.4,0.1h-9.5v8.7h11.3c0.1,0,0.3,0,0.4,0.1s0.2,0.2,0.3,0.4c0.1,0.2,0.1,0.4,0.2,0.8 C672.1,300.9,672.1,301.2,672.1,301.7z"/><path class="st2" d="M706.2,301.5c0,0.5,0,0.9-0.1,1.2c0,0.3-0.1,0.6-0.2,0.8c-0.1,0.2-0.2,0.4-0.3,0.5c-0.1,0.1-0.3,0.1-0.4,0.1 h-14.4c-0.5,0-1-0.2-1.3-0.5c-0.4-0.3-0.5-0.8-0.5-1.5v-28.1c0-0.2,0.1-0.3,0.2-0.4c0.1-0.1,0.3-0.2,0.5-0.3c0.2-0.1,0.6-0.1,1-0.2 c0.4,0,0.9-0.1,1.5-0.1c0.6,0,1.1,0,1.6,0.1c0.4,0,0.7,0.1,1,0.2c0.2,0.1,0.4,0.2,0.5,0.3s0.2,0.3,0.2,0.4V299h9.9 c0.2,0,0.3,0,0.4,0.1c0.1,0.1,0.2,0.2,0.3,0.4c0.1,0.2,0.1,0.5,0.2,0.8C706.2,300.7,706.2,301.1,706.2,301.5z"/><path class="st2" d="M714.6,282.4c0,0.2,0,0.3-0.1,0.5c-0.1,0.1-0.2,0.2-0.4,0.3s-0.4,0.1-0.7,0.2s-0.6,0.1-1.1,0.1 c-0.4,0-0.8,0-1.1-0.1c-0.3,0-0.5-0.1-0.7-0.2c-0.2-0.1-0.3-0.2-0.4-0.3c-0.1-0.1-0.1-0.3-0.1-0.4l-0.6-10.7c0-0.2,0-0.3,0.1-0.4 c0.1-0.1,0.3-0.2,0.5-0.3s0.5-0.2,0.9-0.2s0.8-0.1,1.3-0.1c0.5,0,1,0,1.3,0.1c0.4,0,0.6,0.1,0.9,0.2c0.2,0.1,0.4,0.2,0.5,0.3 s0.1,0.3,0.1,0.5L714.6,282.4z"/><path class="st2" d="M740.2,301.7c0,0.5,0,0.8-0.1,1.2c0,0.3-0.1,0.6-0.2,0.8c-0.1,0.2-0.2,0.3-0.3,0.4c-0.1,0.1-0.3,0.1-0.4,0.1 h-15.8c-0.5,0-1-0.2-1.3-0.5c-0.4-0.3-0.5-0.8-0.5-1.5v-27c0-0.7,0.2-1.2,0.5-1.5c0.4-0.3,0.8-0.5,1.3-0.5h15.7 c0.1,0,0.3,0,0.4,0.1c0.1,0.1,0.2,0.2,0.3,0.4c0.1,0.2,0.1,0.5,0.2,0.8c0,0.3,0.1,0.7,0.1,1.2c0,0.4,0,0.8-0.1,1.1 c0,0.3-0.1,0.6-0.2,0.8s-0.2,0.3-0.3,0.4c-0.1,0.1-0.2,0.1-0.4,0.1h-11.2v7.6h9.5c0.1,0,0.3,0,0.4,0.1c0.1,0.1,0.2,0.2,0.3,0.4 c0.1,0.2,0.1,0.4,0.2,0.7c0,0.3,0.1,0.7,0.1,1.1c0,0.5,0,0.8-0.1,1.1c0,0.3-0.1,0.5-0.2,0.7s-0.2,0.3-0.3,0.4 c-0.1,0.1-0.3,0.1-0.4,0.1h-9.5v8.7h11.3c0.1,0,0.3,0,0.4,0.1s0.2,0.2,0.3,0.4c0.1,0.2,0.1,0.4,0.2,0.8 C740.2,300.9,740.2,301.2,740.2,301.7z"/><path class="st2" d="M771.7,302c0,0.4-0.1,0.7-0.2,1c-0.1,0.3-0.3,0.5-0.5,0.7s-0.5,0.3-0.8,0.4c-0.3,0.1-0.6,0.1-0.9,0.1h-2.7 c-0.6,0-1.1-0.1-1.5-0.2c-0.4-0.1-0.8-0.3-1.1-0.6s-0.7-0.7-1-1.2c-0.3-0.5-0.7-1.2-1.1-2l-7.8-14.5c-0.5-0.9-0.9-1.8-1.4-2.8 c-0.5-1-0.9-2-1.3-2.9h0c0.1,1.1,0.1,2.3,0.1,3.4c0,1.1,0,2.3,0,3.5v16.2c0,0.2,0,0.3-0.1,0.4c-0.1,0.1-0.2,0.2-0.5,0.3 c-0.2,0.1-0.5,0.2-0.9,0.2c-0.4,0-0.8,0.1-1.4,0.1c-0.6,0-1,0-1.4-0.1c-0.4,0-0.7-0.1-0.9-0.2c-0.2-0.1-0.4-0.2-0.4-0.3 c-0.1-0.1-0.1-0.3-0.1-0.4v-27.8c0-0.8,0.2-1.3,0.7-1.7c0.4-0.4,1-0.6,1.6-0.6h3.4c0.6,0,1.1,0.1,1.6,0.2c0.4,0.1,0.8,0.3,1.1,0.5 c0.3,0.2,0.6,0.6,0.9,1s0.6,0.9,0.9,1.6l6.1,11.3c0.4,0.7,0.7,1.4,1.1,2c0.3,0.7,0.7,1.3,1,2s0.6,1.3,0.9,2 c0.3,0.6,0.6,1.3,0.9,1.9h0c0-1.1-0.1-2.3-0.1-3.5c0-1.2,0-2.4,0-3.5v-14.5c0-0.2,0-0.3,0.1-0.4c0.1-0.1,0.3-0.2,0.5-0.3 s0.5-0.2,0.9-0.2c0.4,0,0.8-0.1,1.4-0.1c0.5,0,1,0,1.4,0.1c0.4,0,0.7,0.1,0.9,0.2s0.3,0.2,0.4,0.3c0.1,0.1,0.1,0.3,0.1,0.4V302z"/><path class="st2" d="M797.2,294.9c0,1.6-0.3,3.1-0.9,4.3c-0.6,1.2-1.4,2.3-2.5,3.1c-1.1,0.8-2.3,1.4-3.7,1.9 c-1.4,0.4-2.9,0.6-4.5,0.6c-1.1,0-2.1-0.1-3-0.3c-0.9-0.2-1.8-0.4-2.5-0.6c-0.7-0.2-1.3-0.5-1.8-0.8c-0.5-0.3-0.8-0.5-1-0.7 c-0.2-0.2-0.4-0.5-0.4-0.9s-0.1-1-0.1-1.7c0-0.5,0-0.9,0-1.2c0-0.3,0.1-0.6,0.2-0.8c0.1-0.2,0.2-0.4,0.3-0.4 c0.1-0.1,0.3-0.1,0.4-0.1c0.2,0,0.5,0.1,1,0.4c0.4,0.3,0.9,0.6,1.6,0.9c0.6,0.3,1.4,0.6,2.3,0.9c0.9,0.3,1.9,0.4,3.1,0.4 c0.8,0,1.5-0.1,2.1-0.3c0.6-0.2,1.1-0.4,1.6-0.8c0.4-0.3,0.8-0.8,1-1.2c0.2-0.5,0.3-1,0.3-1.7c0-0.7-0.2-1.3-0.6-1.8 c-0.4-0.5-0.9-0.9-1.5-1.3c-0.6-0.4-1.3-0.8-2.1-1.1c-0.8-0.3-1.6-0.7-2.5-1.1c-0.8-0.4-1.7-0.8-2.5-1.3c-0.8-0.5-1.5-1.1-2.1-1.7 s-1.1-1.5-1.5-2.4c-0.4-0.9-0.6-2-0.6-3.3c0-1.5,0.3-2.8,0.8-3.9c0.6-1.1,1.3-2.1,2.3-2.8c0.9-0.7,2.1-1.3,3.3-1.7 c1.3-0.4,2.6-0.5,4.1-0.5c0.7,0,1.5,0.1,2.2,0.2s1.4,0.3,2.1,0.5c0.6,0.2,1.2,0.4,1.7,0.6c0.5,0.2,0.8,0.4,1,0.6 c0.2,0.2,0.3,0.3,0.3,0.4s0.1,0.3,0.1,0.4c0,0.2,0.1,0.4,0.1,0.7c0,0.3,0,0.6,0,1c0,0.5,0,0.9,0,1.2c0,0.3-0.1,0.6-0.1,0.8 c-0.1,0.2-0.1,0.4-0.2,0.5c-0.1,0.1-0.2,0.1-0.4,0.1c-0.2,0-0.5-0.1-0.8-0.3c-0.4-0.2-0.9-0.5-1.4-0.7c-0.6-0.3-1.2-0.5-2-0.7 c-0.7-0.2-1.6-0.3-2.5-0.3c-0.7,0-1.3,0.1-1.8,0.3c-0.5,0.2-1,0.4-1.3,0.7c-0.3,0.3-0.6,0.6-0.8,1.1s-0.3,0.9-0.3,1.3 c0,0.7,0.2,1.3,0.6,1.8c0.4,0.5,0.9,0.9,1.5,1.3c0.6,0.4,1.4,0.8,2.2,1.1c0.8,0.3,1.6,0.7,2.5,1.1c0.8,0.4,1.7,0.8,2.5,1.3 s1.5,1.1,2.2,1.7c0.6,0.7,1.1,1.5,1.5,2.4C797,292.6,797.2,293.6,797.2,294.9z"/><path class="st2" d="M820.6,301.7c0,0.5,0,0.8-0.1,1.2c0,0.3-0.1,0.6-0.2,0.8c-0.1,0.2-0.2,0.3-0.3,0.4c-0.1,0.1-0.3,0.1-0.4,0.1 h-15.8c-0.5,0-1-0.2-1.3-0.5c-0.4-0.3-0.5-0.8-0.5-1.5v-27c0-0.7,0.2-1.2,0.5-1.5c0.4-0.3,0.8-0.5,1.3-0.5h15.7 c0.1,0,0.3,0,0.4,0.1c0.1,0.1,0.2,0.2,0.3,0.4c0.1,0.2,0.1,0.5,0.2,0.8c0,0.3,0.1,0.7,0.1,1.2c0,0.4,0,0.8-0.1,1.1 c0,0.3-0.1,0.6-0.2,0.8s-0.2,0.3-0.3,0.4c-0.1,0.1-0.2,0.1-0.4,0.1h-11.2v7.6h9.5c0.1,0,0.3,0,0.4,0.1c0.1,0.1,0.2,0.2,0.3,0.4 c0.1,0.2,0.1,0.4,0.2,0.7c0,0.3,0.1,0.7,0.1,1.1c0,0.5,0,0.8-0.1,1.1c0,0.3-0.1,0.5-0.2,0.7s-0.2,0.3-0.3,0.4 c-0.1,0.1-0.3,0.1-0.4,0.1h-9.5v8.7h11.3c0.1,0,0.3,0,0.4,0.1s0.2,0.2,0.3,0.4c0.1,0.2,0.1,0.4,0.2,0.8 C820.6,300.9,820.6,301.2,820.6,301.7z"/><path class="st2" d="M832.7,303.3c0,0.2-0.1,0.3-0.2,0.4s-0.3,0.2-0.5,0.3c-0.2,0.1-0.6,0.1-1,0.2c-0.4,0-0.9,0.1-1.6,0.1 c-0.6,0-1.1,0-1.5-0.1c-0.4,0-0.7-0.1-1-0.2c-0.2-0.1-0.4-0.2-0.5-0.3c-0.1-0.1-0.2-0.3-0.2-0.4v-29.2c0-0.2,0.1-0.3,0.2-0.4 c0.1-0.1,0.3-0.2,0.5-0.3c0.3-0.1,0.6-0.1,1-0.2c0.4,0,0.9-0.1,1.5-0.1c0.6,0,1.1,0,1.6,0.1c0.4,0,0.7,0.1,1,0.2 c0.2,0.1,0.4,0.2,0.5,0.3s0.2,0.3,0.2,0.4V303.3z"/><path class="st2" d="M864.7,278c0,0.5,0,0.9-0.1,1.2c0,0.3-0.1,0.6-0.2,0.8c-0.1,0.2-0.2,0.3-0.3,0.4s-0.2,0.1-0.4,0.1 c-0.2,0-0.5-0.1-1-0.4c-0.5-0.3-1.1-0.6-1.9-0.9s-1.7-0.6-2.8-0.9c-1.1-0.3-2.3-0.4-3.7-0.4c-1.5,0-2.9,0.3-4.1,0.8 c-1.2,0.5-2.3,1.3-3.2,2.2c-0.9,0.9-1.5,2.1-2,3.4c-0.5,1.3-0.7,2.8-0.7,4.4c0,1.8,0.2,3.3,0.7,4.7c0.5,1.3,1.1,2.5,2,3.4 s1.9,1.6,3.1,2.1c1.2,0.5,2.5,0.7,4,0.7c0.7,0,1.4-0.1,2.1-0.2c0.7-0.2,1.3-0.4,1.9-0.7v-7.2h-5.9c-0.3,0-0.5-0.2-0.7-0.5 c-0.2-0.4-0.2-1-0.2-1.8c0-0.4,0-0.8,0.1-1.1c0-0.3,0.1-0.5,0.2-0.7c0.1-0.2,0.2-0.3,0.3-0.4s0.2-0.1,0.4-0.1h10.6 c0.3,0,0.5,0,0.7,0.1c0.2,0.1,0.4,0.2,0.5,0.4c0.2,0.2,0.3,0.4,0.4,0.6c0.1,0.2,0.1,0.5,0.1,0.8v12.3c0,0.5-0.1,0.9-0.3,1.3 c-0.2,0.4-0.5,0.6-1,0.8c-0.5,0.2-1.2,0.4-2,0.6c-0.8,0.2-1.6,0.4-2.4,0.6s-1.7,0.3-2.5,0.4c-0.8,0.1-1.7,0.1-2.6,0.1 c-2.5,0-4.8-0.4-6.7-1.1c-2-0.7-3.7-1.7-5-3.1c-1.4-1.3-2.4-3-3.2-4.9c-0.7-1.9-1.1-4.1-1.1-6.6c0-2.5,0.4-4.8,1.2-6.8 s1.9-3.7,3.3-5.1c1.4-1.4,3.1-2.5,5.2-3.2c2-0.8,4.3-1.1,6.7-1.1c1.4,0,2.6,0.1,3.7,0.3s2.1,0.4,2.9,0.7c0.8,0.3,1.5,0.5,2.1,0.8 c0.5,0.3,0.9,0.6,1.2,0.8c0.2,0.2,0.4,0.5,0.5,0.9C864.7,276.6,864.7,277.2,864.7,278z"/><path class="st2" d="M897.1,302c0,0.4-0.1,0.7-0.2,1c-0.1,0.3-0.3,0.5-0.5,0.7s-0.5,0.3-0.8,0.4c-0.3,0.1-0.6,0.1-0.9,0.1h-2.7 c-0.6,0-1.1-0.1-1.5-0.2c-0.4-0.1-0.8-0.3-1.1-0.6s-0.7-0.7-1-1.2c-0.3-0.5-0.7-1.2-1.1-2l-7.8-14.5c-0.5-0.9-0.9-1.8-1.4-2.8 c-0.5-1-0.9-2-1.3-2.9h0c0.1,1.1,0.1,2.3,0.1,3.4c0,1.1,0,2.3,0,3.5v16.2c0,0.2,0,0.3-0.1,0.4c-0.1,0.1-0.2,0.2-0.5,0.3 c-0.2,0.1-0.5,0.2-0.9,0.2c-0.4,0-0.8,0.1-1.4,0.1c-0.6,0-1,0-1.4-0.1c-0.4,0-0.7-0.1-0.9-0.2c-0.2-0.1-0.4-0.2-0.4-0.3 c-0.1-0.1-0.1-0.3-0.1-0.4v-27.8c0-0.8,0.2-1.3,0.7-1.7c0.4-0.4,1-0.6,1.6-0.6h3.4c0.6,0,1.1,0.1,1.6,0.2c0.4,0.1,0.8,0.3,1.1,0.5 c0.3,0.2,0.6,0.6,0.9,1s0.6,0.9,0.9,1.6l6.1,11.3c0.4,0.7,0.7,1.4,1.1,2c0.3,0.7,0.7,1.3,1,2s0.6,1.3,0.9,2 c0.3,0.6,0.6,1.3,0.9,1.9h0c0-1.1-0.1-2.3-0.1-3.5c0-1.2,0-2.4,0-3.5v-14.5c0-0.2,0-0.3,0.1-0.4c0.1-0.1,0.3-0.2,0.5-0.3 s0.5-0.2,0.9-0.2c0.4,0,0.8-0.1,1.4-0.1c0.5,0,1,0,1.4,0.1c0.4,0,0.7,0.1,0.9,0.2s0.3,0.2,0.4,0.3c0.1,0.1,0.1,0.3,0.1,0.4V302z"/><path class="st2" d="M922.5,301.7c0,0.5,0,0.8-0.1,1.2c0,0.3-0.1,0.6-0.2,0.8c-0.1,0.2-0.2,0.3-0.3,0.4c-0.1,0.1-0.3,0.1-0.4,0.1 h-15.8c-0.5,0-1-0.2-1.3-0.5c-0.4-0.3-0.5-0.8-0.5-1.5v-27c0-0.7,0.2-1.2,0.5-1.5c0.4-0.3,0.8-0.5,1.3-0.5h15.7 c0.1,0,0.3,0,0.4,0.1c0.1,0.1,0.2,0.2,0.3,0.4c0.1,0.2,0.1,0.5,0.2,0.8c0,0.3,0.1,0.7,0.1,1.2c0,0.4,0,0.8-0.1,1.1 c0,0.3-0.1,0.6-0.2,0.8s-0.2,0.3-0.3,0.4c-0.1,0.1-0.2,0.1-0.4,0.1h-11.2v7.6h9.5c0.1,0,0.3,0,0.4,0.1c0.1,0.1,0.2,0.2,0.3,0.4 c0.1,0.2,0.1,0.4,0.2,0.7c0,0.3,0.1,0.7,0.1,1.1c0,0.5,0,0.8-0.1,1.1c0,0.3-0.1,0.5-0.2,0.7s-0.2,0.3-0.3,0.4 c-0.1,0.1-0.3,0.1-0.4,0.1h-9.5v8.7h11.3c0.1,0,0.3,0,0.4,0.1s0.2,0.2,0.3,0.4c0.1,0.2,0.1,0.4,0.2,0.8 C922.5,300.9,922.5,301.2,922.5,301.7z"/><path class="st2" d="M964.7,303.3c0,0.2,0,0.3-0.1,0.4s-0.3,0.2-0.5,0.3c-0.2,0.1-0.5,0.1-0.9,0.2c-0.4,0-0.9,0.1-1.5,0.1 c-0.6,0-1.1,0-1.5-0.1c-0.4,0-0.7-0.1-0.9-0.2c-0.2-0.1-0.4-0.2-0.5-0.3c-0.1-0.1-0.1-0.3-0.1-0.4v-25.2h0l-9.1,25.2 c-0.1,0.2-0.2,0.4-0.3,0.5c-0.1,0.1-0.3,0.2-0.6,0.3c-0.3,0.1-0.6,0.1-1,0.2c-0.4,0-0.9,0-1.4,0s-1,0-1.4-0.1c-0.4,0-0.7-0.1-1-0.2 c-0.3-0.1-0.4-0.2-0.6-0.3s-0.2-0.3-0.3-0.5l-8.8-25.2h0v25.2c0,0.2,0,0.3-0.1,0.4s-0.3,0.2-0.5,0.3c-0.2,0.1-0.6,0.1-0.9,0.2 c-0.4,0-0.9,0.1-1.5,0.1c-0.6,0-1.1,0-1.5-0.1c-0.4,0-0.7-0.1-0.9-0.2c-0.2-0.1-0.4-0.2-0.5-0.3s-0.1-0.3-0.1-0.4v-27.6 c0-0.8,0.2-1.4,0.7-1.9c0.4-0.4,1-0.6,1.7-0.6h4.2c0.7,0,1.4,0.1,1.9,0.2c0.5,0.1,1,0.3,1.4,0.6c0.4,0.3,0.7,0.6,1,1.1 c0.3,0.5,0.5,1,0.7,1.7l6.8,18.4h0.1l7-18.4c0.2-0.7,0.4-1.2,0.7-1.7c0.2-0.5,0.5-0.8,0.9-1.1s0.7-0.5,1.2-0.6 c0.5-0.1,1-0.2,1.6-0.2h4.3c0.4,0,0.8,0.1,1.1,0.2c0.3,0.1,0.6,0.3,0.8,0.5c0.2,0.2,0.4,0.5,0.5,0.8c0.1,0.3,0.2,0.7,0.2,1.1V303.3 z"/><path class="st2" d="M990.2,301.7c0,0.5,0,0.8-0.1,1.2c0,0.3-0.1,0.6-0.2,0.8c-0.1,0.2-0.2,0.3-0.3,0.4c-0.1,0.1-0.3,0.1-0.4,0.1 h-15.8c-0.5,0-1-0.2-1.3-0.5c-0.4-0.3-0.5-0.8-0.5-1.5v-27c0-0.7,0.2-1.2,0.5-1.5c0.4-0.3,0.8-0.5,1.3-0.5h15.7 c0.1,0,0.3,0,0.4,0.1c0.1,0.1,0.2,0.2,0.3,0.4c0.1,0.2,0.1,0.5,0.2,0.8c0,0.3,0.1,0.7,0.1,1.2c0,0.4,0,0.8-0.1,1.1 c0,0.3-0.1,0.6-0.2,0.8s-0.2,0.3-0.3,0.4c-0.1,0.1-0.2,0.1-0.4,0.1h-11.2v7.6h9.5c0.1,0,0.3,0,0.4,0.1c0.1,0.1,0.2,0.2,0.3,0.4 c0.1,0.2,0.1,0.4,0.2,0.7c0,0.3,0.1,0.7,0.1,1.1c0,0.5,0,0.8-0.1,1.1c0,0.3-0.1,0.5-0.2,0.7s-0.2,0.3-0.3,0.4 c-0.1,0.1-0.3,0.1-0.4,0.1h-9.5v8.7h11.3c0.1,0,0.3,0,0.4,0.1s0.2,0.2,0.3,0.4c0.1,0.2,0.1,0.4,0.2,0.8 C990.2,300.9,990.2,301.2,990.2,301.7z"/><path class="st2" d="M1021.7,302c0,0.4-0.1,0.7-0.2,1c-0.1,0.3-0.3,0.5-0.5,0.7s-0.5,0.3-0.8,0.4c-0.3,0.1-0.6,0.1-0.9,0.1h-2.7 c-0.6,0-1.1-0.1-1.5-0.2c-0.4-0.1-0.8-0.3-1.1-0.6s-0.7-0.7-1-1.2c-0.3-0.5-0.7-1.2-1.1-2l-7.8-14.5c-0.5-0.9-0.9-1.8-1.4-2.8 c-0.5-1-0.9-2-1.3-2.9h0c0.1,1.1,0.1,2.3,0.1,3.4c0,1.1,0,2.3,0,3.5v16.2c0,0.2,0,0.3-0.1,0.4c-0.1,0.1-0.2,0.2-0.5,0.3 c-0.2,0.1-0.5,0.2-0.9,0.2c-0.4,0-0.8,0.1-1.4,0.1c-0.6,0-1,0-1.4-0.1c-0.4,0-0.7-0.1-0.9-0.2c-0.2-0.1-0.4-0.2-0.4-0.3 c-0.1-0.1-0.1-0.3-0.1-0.4v-27.8c0-0.8,0.2-1.3,0.7-1.7c0.4-0.4,1-0.6,1.6-0.6h3.4c0.6,0,1.1,0.1,1.6,0.2c0.4,0.1,0.8,0.3,1.1,0.5 c0.3,0.2,0.6,0.6,0.9,1s0.6,0.9,0.9,1.6l6.1,11.3c0.4,0.7,0.7,1.4,1.1,2c0.3,0.7,0.7,1.3,1,2s0.6,1.3,0.9,2 c0.3,0.6,0.6,1.3,0.9,1.9h0c0-1.1-0.1-2.3-0.1-3.5c0-1.2,0-2.4,0-3.5v-14.5c0-0.2,0-0.3,0.1-0.4c0.1-0.1,0.3-0.2,0.5-0.3 s0.5-0.2,0.9-0.2c0.4,0,0.8-0.1,1.4-0.1c0.5,0,1,0,1.4,0.1c0.4,0,0.7,0.1,0.9,0.2s0.3,0.2,0.4,0.3c0.1,0.1,0.1,0.3,0.1,0.4V302z"/><path class="st2" d="M1049.4,275.8c0,0.5,0,0.9-0.1,1.2c0,0.3-0.1,0.6-0.2,0.8c-0.1,0.2-0.2,0.3-0.3,0.4c-0.1,0.1-0.3,0.1-0.4,0.1 h-7.9v25c0,0.2-0.1,0.3-0.2,0.4s-0.3,0.2-0.5,0.3c-0.2,0.1-0.6,0.1-1,0.2c-0.4,0-0.9,0.1-1.5,0.1c-0.6,0-1.1,0-1.5-0.1 c-0.4,0-0.7-0.1-1-0.2c-0.2-0.1-0.4-0.2-0.5-0.3c-0.1-0.1-0.2-0.3-0.2-0.4v-25h-7.9c-0.2,0-0.3,0-0.4-0.1c-0.1-0.1-0.2-0.2-0.3-0.4 c-0.1-0.2-0.1-0.5-0.2-0.8s-0.1-0.7-0.1-1.2c0-0.5,0-0.9,0.1-1.2c0-0.3,0.1-0.6,0.2-0.8c0.1-0.2,0.2-0.3,0.3-0.4 c0.1-0.1,0.2-0.1,0.4-0.1h22.1c0.1,0,0.3,0,0.4,0.1c0.1,0.1,0.2,0.2,0.3,0.4s0.1,0.5,0.2,0.8 C1049.4,274.9,1049.4,275.3,1049.4,275.8z"/><g><path class="st2" d="M234,333.1c0,0.5,0,0.9-0.1,1.2c0,0.3-0.1,0.6-0.2,0.8c-0.1,0.2-0.2,0.3-0.3,0.4c-0.1,0.1-0.3,0.1-0.4,0.1 h-7.9v25c0,0.2-0.1,0.3-0.2,0.4c-0.1,0.1-0.3,0.2-0.5,0.3c-0.2,0.1-0.6,0.1-1,0.2c-0.4,0-0.9,0.1-1.5,0.1c-0.6,0-1.1,0-1.5-0.1 c-0.4,0-0.7-0.1-1-0.2c-0.2-0.1-0.4-0.2-0.5-0.3c-0.1-0.1-0.2-0.3-0.2-0.4v-25H211c-0.2,0-0.3,0-0.4-0.1c-0.1-0.1-0.2-0.2-0.3-0.4 c-0.1-0.2-0.1-0.5-0.2-0.8c0-0.3-0.1-0.7-0.1-1.2c0-0.5,0-0.9,0.1-1.2c0-0.3,0.1-0.6,0.2-0.8s0.2-0.3,0.3-0.4 c0.1-0.1,0.3-0.1,0.4-0.1h22.1c0.1,0,0.3,0,0.4,0.1c0.1,0.1,0.2,0.2,0.3,0.4s0.1,0.5,0.2,0.8C234,332.2,234,332.6,234,333.1z"/><path class="st2" d="M256.4,359c0,0.5,0,0.8-0.1,1.2c0,0.3-0.1,0.6-0.2,0.8s-0.2,0.3-0.3,0.4c-0.1,0.1-0.3,0.1-0.4,0.1h-15.8 c-0.5,0-1-0.2-1.3-0.5c-0.4-0.3-0.5-0.8-0.5-1.5v-27c0-0.7,0.2-1.2,0.5-1.5c0.4-0.3,0.8-0.5,1.3-0.5h15.7c0.1,0,0.3,0,0.4,0.1 c0.1,0.1,0.2,0.2,0.3,0.4c0.1,0.2,0.1,0.5,0.2,0.8c0,0.3,0.1,0.7,0.1,1.2c0,0.4,0,0.8-0.1,1.1c0,0.3-0.1,0.6-0.2,0.8 c-0.1,0.2-0.2,0.3-0.3,0.4c-0.1,0.1-0.2,0.1-0.4,0.1h-11.2v7.6h9.5c0.1,0,0.3,0,0.4,0.1c0.1,0.1,0.2,0.2,0.3,0.4 c0.1,0.2,0.1,0.4,0.2,0.7c0,0.3,0.1,0.7,0.1,1.1c0,0.5,0,0.8-0.1,1.1c0,0.3-0.1,0.5-0.2,0.7s-0.2,0.3-0.3,0.4 c-0.1,0.1-0.3,0.1-0.4,0.1h-9.5v8.7h11.3c0.1,0,0.3,0,0.4,0.1c0.1,0.1,0.2,0.2,0.3,0.4s0.1,0.4,0.2,0.8 C256.3,358.1,256.4,358.5,256.4,359z"/><path class="st2" d="M283,356.8c0,0.4,0,0.7,0,1c0,0.3-0.1,0.5-0.1,0.7c0,0.2-0.1,0.4-0.2,0.5c-0.1,0.1-0.2,0.3-0.4,0.5 c-0.2,0.2-0.5,0.4-1,0.7c-0.5,0.3-1.1,0.6-1.9,0.8c-0.7,0.3-1.6,0.5-2.5,0.7s-2,0.3-3.1,0.3c-2.2,0-4.1-0.3-5.8-1 c-1.7-0.7-3.2-1.6-4.4-2.9c-1.2-1.3-2.1-2.9-2.8-4.9s-1-4.2-1-6.8c0-2.6,0.4-5,1.1-7c0.7-2,1.7-3.8,3-5.1s2.8-2.4,4.6-3.2 c1.8-0.7,3.8-1.1,5.9-1.1c0.9,0,1.7,0.1,2.5,0.2c0.8,0.1,1.6,0.3,2.2,0.6s1.3,0.5,1.9,0.8c0.5,0.3,0.9,0.6,1.2,0.8 c0.2,0.2,0.4,0.4,0.4,0.5s0.1,0.3,0.2,0.5c0,0.2,0.1,0.5,0.1,0.8c0,0.3,0,0.7,0,1.1c0,0.5,0,0.9,0,1.2c0,0.3-0.1,0.6-0.2,0.8 c-0.1,0.2-0.2,0.4-0.3,0.5s-0.2,0.1-0.4,0.1c-0.2,0-0.5-0.1-0.9-0.4s-0.9-0.6-1.4-0.9c-0.6-0.3-1.3-0.7-2.1-0.9s-1.8-0.4-2.9-0.4 c-1.2,0-2.4,0.3-3.3,0.8c-1,0.5-1.8,1.2-2.5,2.2c-0.7,0.9-1.2,2.1-1.6,3.4c-0.4,1.3-0.5,2.8-0.5,4.5c0,1.8,0.2,3.4,0.6,4.7 c0.4,1.3,0.9,2.4,1.6,3.3s1.6,1.5,2.5,1.9s2.1,0.6,3.4,0.6c1.1,0,2.1-0.1,2.9-0.4c0.8-0.3,1.5-0.6,2.1-0.9c0.6-0.3,1.1-0.6,1.5-0.9 c0.4-0.3,0.7-0.4,0.9-0.4c0.2,0,0.3,0,0.4,0.1c0.1,0.1,0.2,0.2,0.2,0.4c0.1,0.2,0.1,0.5,0.1,0.8C283,355.7,283,356.2,283,356.8z"/><path class="st2" d="M312.1,360.6c0,0.2-0.1,0.3-0.2,0.4c-0.1,0.1-0.3,0.2-0.5,0.3c-0.2,0.1-0.6,0.1-1,0.2c-0.4,0-0.9,0.1-1.5,0.1 c-0.6,0-1.2,0-1.6-0.1c-0.4,0-0.7-0.1-1-0.2c-0.2-0.1-0.4-0.2-0.5-0.3c-0.1-0.1-0.2-0.3-0.2-0.4v-12.5H294v12.5 c0,0.2,0,0.3-0.1,0.4c-0.1,0.1-0.3,0.2-0.5,0.3c-0.2,0.1-0.6,0.1-1,0.2c-0.4,0-0.9,0.1-1.6,0.1c-0.6,0-1.1,0-1.5-0.1 c-0.4,0-0.7-0.1-1-0.2c-0.2-0.1-0.4-0.2-0.5-0.3c-0.1-0.1-0.2-0.3-0.2-0.4v-29.2c0-0.2,0.1-0.3,0.2-0.4c0.1-0.1,0.3-0.2,0.5-0.3 c0.2-0.1,0.6-0.1,1-0.2c0.4,0,0.9-0.1,1.5-0.1c0.6,0,1.1,0,1.6,0.1c0.4,0,0.7,0.1,1,0.2c0.2,0.1,0.4,0.2,0.5,0.3 c0.1,0.1,0.1,0.3,0.1,0.4v11.4h11.7v-11.4c0-0.2,0.1-0.3,0.2-0.4c0.1-0.1,0.3-0.2,0.5-0.3c0.2-0.1,0.6-0.1,1-0.2 c0.4,0,0.9-0.1,1.6-0.1c0.6,0,1.1,0,1.5,0.1c0.4,0,0.7,0.1,1,0.2c0.2,0.1,0.4,0.2,0.5,0.3c0.1,0.1,0.2,0.3,0.2,0.4V360.6z"/><path class="st2" d="M344.8,359.3c0,0.4-0.1,0.7-0.2,1c-0.1,0.3-0.3,0.5-0.5,0.7s-0.5,0.3-0.8,0.4c-0.3,0.1-0.6,0.1-0.9,0.1h-2.7 c-0.6,0-1.1-0.1-1.5-0.2c-0.4-0.1-0.8-0.3-1.1-0.6s-0.7-0.7-1-1.2c-0.3-0.5-0.7-1.2-1.1-2l-7.8-14.5c-0.5-0.9-0.9-1.8-1.4-2.8 c-0.5-1-0.9-2-1.3-2.9h0c0.1,1.1,0.1,2.3,0.1,3.4c0,1.1,0,2.3,0,3.5v16.2c0,0.2,0,0.3-0.1,0.4c-0.1,0.1-0.2,0.2-0.5,0.3 c-0.2,0.1-0.5,0.2-0.9,0.2c-0.4,0-0.8,0.1-1.4,0.1c-0.6,0-1,0-1.4-0.1c-0.4,0-0.7-0.1-0.9-0.2c-0.2-0.1-0.4-0.2-0.4-0.3 c-0.1-0.1-0.1-0.3-0.1-0.4v-27.8c0-0.8,0.2-1.3,0.7-1.7s1-0.6,1.6-0.6h3.4c0.6,0,1.1,0.1,1.6,0.2c0.4,0.1,0.8,0.3,1.1,0.5 c0.3,0.2,0.6,0.6,0.9,1s0.6,0.9,0.9,1.6l6.1,11.3c0.4,0.7,0.7,1.4,1.1,2c0.3,0.7,0.7,1.3,1,2c0.3,0.7,0.6,1.3,0.9,2 c0.3,0.6,0.6,1.3,0.9,1.9h0c0-1.1-0.1-2.3-0.1-3.5c0-1.2,0-2.4,0-3.5v-14.5c0-0.2,0-0.3,0.1-0.4c0.1-0.1,0.3-0.2,0.5-0.3 s0.5-0.2,0.9-0.2c0.4,0,0.8-0.1,1.4-0.1c0.5,0,1,0,1.4,0.1c0.4,0,0.7,0.1,0.9,0.2c0.2,0.1,0.3,0.2,0.4,0.3c0.1,0.1,0.1,0.3,0.1,0.4 V359.3z"/><path class="st2" d="M358.1,360.6c0,0.2-0.1,0.3-0.2,0.4s-0.3,0.2-0.5,0.3c-0.2,0.1-0.6,0.1-1,0.2c-0.4,0-0.9,0.1-1.6,0.1 c-0.6,0-1.1,0-1.5-0.1c-0.4,0-0.7-0.1-1-0.2c-0.2-0.1-0.4-0.2-0.5-0.3c-0.1-0.1-0.2-0.3-0.2-0.4v-29.2c0-0.2,0.1-0.3,0.2-0.4 c0.1-0.1,0.3-0.2,0.5-0.3c0.3-0.1,0.6-0.1,1-0.2c0.4,0,0.9-0.1,1.5-0.1c0.6,0,1.1,0,1.6,0.1c0.4,0,0.7,0.1,1,0.2 c0.2,0.1,0.4,0.2,0.5,0.3s0.2,0.3,0.2,0.4V360.6z"/><path class="st2" d="M396.1,364.4c0,0.6,0,1-0.1,1.4c-0.1,0.4-0.1,0.6-0.2,0.8c-0.1,0.2-0.2,0.3-0.3,0.4s-0.2,0.1-0.4,0.1 c-0.5,0-1.2-0.1-2.1-0.4s-1.8-0.7-2.8-1.2c-1-0.5-2-1.2-3.1-2c-1-0.8-2-1.7-2.9-2.7c-0.7,0.3-1.6,0.6-2.7,0.9s-2.2,0.4-3.5,0.4 c-2.4,0-4.6-0.3-6.4-0.9c-1.8-0.6-3.3-1.6-4.5-2.9c-1.2-1.3-2.1-2.9-2.7-4.9c-0.6-2-0.9-4.4-0.9-7.1c0-2.5,0.3-4.8,1-6.8 c0.6-2,1.6-3.7,2.9-5.1c1.3-1.4,2.9-2.5,4.7-3.2c1.9-0.8,4.1-1.1,6.6-1.1c2.3,0,4.4,0.3,6.2,0.9s3.3,1.6,4.6,2.9 c1.2,1.3,2.2,2.9,2.8,4.9c0.6,2,1,4.3,1,7c0,1.4-0.1,2.7-0.3,3.9c-0.2,1.2-0.5,2.3-0.8,3.4c-0.4,1-0.8,2-1.3,2.8s-1.1,1.6-1.8,2.3 c1,0.9,1.9,1.5,2.7,2c0.8,0.4,1.4,0.8,2,1c0.5,0.2,0.9,0.4,1.3,0.5s0.6,0.2,0.7,0.4c0.2,0.2,0.3,0.5,0.4,0.9 C396.1,363.1,396.1,363.7,396.1,364.4z M386.4,345.9c0-1.6-0.1-3.1-0.4-4.4s-0.7-2.5-1.3-3.4c-0.6-0.9-1.5-1.7-2.5-2.2 s-2.3-0.8-3.9-0.8c-1.6,0-2.9,0.3-3.9,0.9c-1.1,0.6-1.9,1.3-2.5,2.3c-0.6,1-1.1,2.1-1.4,3.4c-0.3,1.3-0.4,2.7-0.4,4.1 c0,1.7,0.1,3.2,0.4,4.6c0.3,1.4,0.7,2.5,1.3,3.5c0.6,1,1.4,1.7,2.5,2.2c1,0.5,2.3,0.8,3.9,0.8c1.6,0,2.9-0.3,3.9-0.9 c1.1-0.6,1.9-1.4,2.5-2.3c0.6-1,1.1-2.1,1.4-3.5C386.3,348.8,386.4,347.4,386.4,345.9z"/><path class="st2" d="M424.6,349.9c0,1.9-0.3,3.6-0.8,5.1c-0.6,1.5-1.4,2.8-2.5,3.8c-1.1,1-2.5,1.8-4.1,2.4 c-1.6,0.5-3.5,0.8-5.6,0.8c-2,0-3.7-0.2-5.3-0.7c-1.6-0.5-2.9-1.2-4-2.2s-1.9-2.2-2.5-3.7s-0.9-3.2-0.9-5.2v-18.8 c0-0.2,0-0.3,0.1-0.4c0.1-0.1,0.3-0.2,0.5-0.3c0.2-0.1,0.6-0.1,1-0.2c0.4,0,0.9-0.1,1.6-0.1c0.6,0,1.1,0,1.5,0.1 c0.4,0,0.7,0.1,1,0.2c0.2,0.1,0.4,0.2,0.5,0.3s0.2,0.3,0.2,0.4v18.3c0,1.2,0.2,2.3,0.5,3.2c0.3,0.9,0.7,1.6,1.3,2.2 c0.6,0.6,1.3,1,2.1,1.3c0.8,0.3,1.7,0.4,2.7,0.4c1,0,1.9-0.2,2.7-0.5c0.8-0.3,1.5-0.7,2-1.3c0.5-0.6,1-1.3,1.3-2.2 c0.3-0.9,0.4-1.8,0.4-2.9v-18.6c0-0.2,0-0.3,0.1-0.4c0.1-0.1,0.3-0.2,0.5-0.3c0.2-0.1,0.6-0.1,1-0.2c0.4,0,0.9-0.1,1.5-0.1 c0.6,0,1.1,0,1.5,0.1c0.4,0,0.7,0.1,1,0.2c0.2,0.1,0.4,0.2,0.5,0.3c0.1,0.1,0.1,0.3,0.1,0.4V349.9z"/><path class="st2" d="M450,359c0,0.5,0,0.8-0.1,1.2c0,0.3-0.1,0.6-0.2,0.8c-0.1,0.2-0.2,0.3-0.3,0.4c-0.1,0.1-0.3,0.1-0.4,0.1h-15.8 c-0.5,0-1-0.2-1.3-0.5c-0.4-0.3-0.5-0.8-0.5-1.5v-27c0-0.7,0.2-1.2,0.5-1.5c0.4-0.3,0.8-0.5,1.3-0.5H449c0.1,0,0.3,0,0.4,0.1 c0.1,0.1,0.2,0.2,0.3,0.4c0.1,0.2,0.1,0.5,0.2,0.8c0,0.3,0.1,0.7,0.1,1.2c0,0.4,0,0.8-0.1,1.1c0,0.3-0.1,0.6-0.2,0.8 s-0.2,0.3-0.3,0.4c-0.1,0.1-0.2,0.1-0.4,0.1h-11.2v7.6h9.5c0.1,0,0.3,0,0.4,0.1c0.1,0.1,0.2,0.2,0.3,0.4c0.1,0.2,0.1,0.4,0.2,0.7 c0,0.3,0.1,0.7,0.1,1.1c0,0.5,0,0.8-0.1,1.1c0,0.3-0.1,0.5-0.2,0.7s-0.2,0.3-0.3,0.4c-0.1,0.1-0.3,0.1-0.4,0.1h-9.5v8.7h11.3 c0.1,0,0.3,0,0.4,0.1s0.2,0.2,0.3,0.4c0.1,0.2,0.1,0.4,0.2,0.8C450,358.1,450,358.5,450,359z"/><path class="st2" d="M493,345.5c0,2.8-0.4,5.3-1.1,7.3c-0.8,2-1.8,3.7-3.2,4.9c-1.4,1.3-3.1,2.2-5.1,2.8c-2,0.6-4.4,0.9-7.2,0.9 h-7.5c-0.5,0-1-0.2-1.3-0.5c-0.4-0.3-0.5-0.8-0.5-1.5v-27c0-0.7,0.2-1.2,0.5-1.5c0.4-0.3,0.8-0.5,1.3-0.5h8.1c2.8,0,5.2,0.3,7.1,1 c1.9,0.6,3.6,1.6,4.9,2.9c1.3,1.3,2.3,2.8,3,4.7C492.6,340.9,493,343.1,493,345.5z M486.4,345.7c0-1.5-0.2-2.8-0.5-4.1 s-0.9-2.4-1.7-3.3c-0.8-0.9-1.8-1.6-3-2.2c-1.2-0.5-2.8-0.8-4.7-0.8h-3.2v21.1h3.3c1.7,0,3.2-0.2,4.4-0.7c1.2-0.4,2.2-1.1,3-2 s1.4-2,1.8-3.4S486.4,347.5,486.4,345.7z"/><path class="st2" d="M516.8,359c0,0.5,0,0.8-0.1,1.2c0,0.3-0.1,0.6-0.2,0.8c-0.1,0.2-0.2,0.3-0.3,0.4c-0.1,0.1-0.3,0.1-0.4,0.1 h-15.8c-0.5,0-1-0.2-1.3-0.5c-0.4-0.3-0.5-0.8-0.5-1.5v-27c0-0.7,0.2-1.2,0.5-1.5c0.4-0.3,0.8-0.5,1.3-0.5h15.7 c0.1,0,0.3,0,0.4,0.1c0.1,0.1,0.2,0.2,0.3,0.4c0.1,0.2,0.1,0.5,0.2,0.8c0,0.3,0.1,0.7,0.1,1.2c0,0.4,0,0.8-0.1,1.1 c0,0.3-0.1,0.6-0.2,0.8s-0.2,0.3-0.3,0.4c-0.1,0.1-0.2,0.1-0.4,0.1h-11.2v7.6h9.5c0.1,0,0.3,0,0.4,0.1c0.1,0.1,0.2,0.2,0.3,0.4 c0.1,0.2,0.1,0.4,0.2,0.7c0,0.3,0.1,0.7,0.1,1.1c0,0.5,0,0.8-0.1,1.1c0,0.3-0.1,0.5-0.2,0.7s-0.2,0.3-0.3,0.4 c-0.1,0.1-0.3,0.1-0.4,0.1h-9.5v8.7h11.3c0.1,0,0.3,0,0.4,0.1s0.2,0.2,0.3,0.4c0.1,0.2,0.1,0.4,0.2,0.8 C516.8,358.1,516.8,358.5,516.8,359z"/><path class="st2" d="M570.3,360.6c0,0.2,0,0.3-0.1,0.4s-0.3,0.2-0.5,0.3c-0.2,0.1-0.5,0.1-0.9,0.2c-0.4,0-0.9,0.1-1.5,0.1 c-0.6,0-1.1,0-1.5-0.1c-0.4,0-0.7-0.1-0.9-0.2c-0.2-0.1-0.4-0.2-0.5-0.3c-0.1-0.1-0.1-0.3-0.1-0.4v-25.2h0l-9.1,25.2 c-0.1,0.2-0.2,0.4-0.3,0.5c-0.1,0.1-0.3,0.2-0.6,0.3c-0.3,0.1-0.6,0.1-1,0.2c-0.4,0-0.9,0-1.4,0s-1,0-1.4-0.1c-0.4,0-0.7-0.1-1-0.2 c-0.3-0.1-0.4-0.2-0.6-0.3s-0.2-0.3-0.3-0.5l-8.8-25.2h0v25.2c0,0.2,0,0.3-0.1,0.4s-0.3,0.2-0.5,0.3c-0.2,0.1-0.6,0.1-0.9,0.2 c-0.4,0-0.9,0.1-1.5,0.1c-0.6,0-1.1,0-1.5-0.1c-0.4,0-0.7-0.1-0.9-0.2c-0.2-0.1-0.4-0.2-0.5-0.3s-0.1-0.3-0.1-0.4V333 c0-0.8,0.2-1.4,0.7-1.9c0.4-0.4,1-0.6,1.7-0.6h4.2c0.7,0,1.4,0.1,1.9,0.2c0.5,0.1,1,0.3,1.4,0.6c0.4,0.3,0.7,0.6,1,1.1 c0.3,0.5,0.5,1,0.7,1.7l6.8,18.4h0.1l7-18.4c0.2-0.7,0.4-1.2,0.7-1.7c0.2-0.5,0.5-0.8,0.9-1.1s0.7-0.5,1.2-0.6 c0.5-0.1,1-0.2,1.6-0.2h4.3c0.4,0,0.8,0.1,1.1,0.2c0.3,0.1,0.6,0.3,0.8,0.5c0.2,0.2,0.4,0.5,0.5,0.8c0.1,0.3,0.2,0.7,0.2,1.1V360.6 z"/><path class="st2" d="M605.4,345.6c0,2.6-0.3,4.9-1,6.9c-0.6,2-1.6,3.7-2.9,5.2c-1.3,1.4-2.9,2.5-4.7,3.2c-1.9,0.7-4.1,1.1-6.5,1.1 c-2.4,0-4.6-0.3-6.4-0.9c-1.8-0.6-3.3-1.6-4.5-2.9c-1.2-1.3-2.1-2.9-2.7-4.9c-0.6-2-0.9-4.4-0.9-7.1c0-2.5,0.3-4.8,1-6.8 c0.6-2,1.6-3.7,2.9-5.1c1.3-1.4,2.9-2.5,4.7-3.2c1.9-0.8,4.1-1.1,6.6-1.1c2.4,0,4.5,0.3,6.3,0.9c1.8,0.6,3.3,1.6,4.6,2.9 c1.2,1.3,2.1,2.9,2.8,4.9C605.1,340.6,605.4,342.9,605.4,345.6z M598.7,346c0-1.6-0.1-3.1-0.4-4.4c-0.3-1.3-0.7-2.5-1.3-3.4 c-0.6-0.9-1.5-1.7-2.5-2.2s-2.3-0.8-3.9-0.8c-1.6,0-2.9,0.3-3.9,0.9c-1.1,0.6-1.9,1.4-2.5,2.3c-0.6,1-1.1,2.1-1.4,3.4 s-0.4,2.7-0.4,4.1c0,1.7,0.1,3.2,0.4,4.6c0.3,1.3,0.7,2.5,1.3,3.5c0.6,1,1.4,1.7,2.5,2.2c1,0.5,2.3,0.8,3.9,0.8 c1.6,0,2.9-0.3,3.9-0.9c1.1-0.6,1.9-1.4,2.5-2.3c0.6-1,1.1-2.1,1.4-3.5C598.5,348.8,598.7,347.4,598.7,346z"/><path class="st2" d="M635.2,360.6c0,0.2-0.1,0.3-0.2,0.4s-0.3,0.2-0.5,0.3c-0.2,0.1-0.6,0.1-1,0.2c-0.4,0-0.9,0.1-1.5,0.1 c-0.6,0-1.2,0-1.6-0.1c-0.4,0-0.7-0.1-1-0.2c-0.2-0.1-0.4-0.2-0.5-0.3c-0.1-0.1-0.2-0.3-0.2-0.4v-12.5h-11.7v12.5 c0,0.2,0,0.3-0.1,0.4c-0.1,0.1-0.3,0.2-0.5,0.3c-0.2,0.1-0.6,0.1-1,0.2c-0.4,0-0.9,0.1-1.6,0.1c-0.6,0-1.1,0-1.5-0.1 c-0.4,0-0.7-0.1-1-0.2c-0.2-0.1-0.4-0.2-0.5-0.3c-0.1-0.1-0.2-0.3-0.2-0.4v-29.2c0-0.2,0.1-0.3,0.2-0.4c0.1-0.1,0.3-0.2,0.5-0.3 c0.2-0.1,0.6-0.1,1-0.2c0.4,0,0.9-0.1,1.5-0.1c0.6,0,1.1,0,1.6,0.1c0.4,0,0.7,0.1,1,0.2c0.2,0.1,0.4,0.2,0.5,0.3 c0.1,0.1,0.1,0.3,0.1,0.4v11.4h11.7v-11.4c0-0.2,0.1-0.3,0.2-0.4c0.1-0.1,0.3-0.2,0.5-0.3c0.2-0.1,0.6-0.1,1-0.2 c0.4,0,0.9-0.1,1.6-0.1c0.6,0,1.1,0,1.5,0.1c0.4,0,0.7,0.1,1,0.2c0.2,0.1,0.4,0.2,0.5,0.3s0.2,0.3,0.2,0.4V360.6z"/><path class="st2" d="M667.8,359.1c0.2,0.6,0.3,1,0.4,1.4c0,0.3,0,0.6-0.2,0.8c-0.2,0.2-0.5,0.3-0.9,0.3c-0.5,0-1.1,0.1-1.9,0.1 c-0.8,0-1.5,0-1.9,0c-0.5,0-0.8-0.1-1.1-0.1c-0.2-0.1-0.4-0.2-0.5-0.3s-0.2-0.3-0.2-0.5l-2.1-6.2h-11.8l-2,6.1 c-0.1,0.2-0.1,0.4-0.3,0.6c-0.1,0.2-0.3,0.3-0.5,0.4c-0.2,0.1-0.6,0.1-1,0.2s-1,0-1.7,0c-0.7,0-1.3,0-1.7-0.1 c-0.4,0-0.7-0.2-0.9-0.3c-0.2-0.2-0.2-0.4-0.2-0.8s0.2-0.8,0.4-1.3l9.7-27.5c0.1-0.3,0.2-0.5,0.3-0.7c0.1-0.2,0.3-0.3,0.6-0.4 c0.3-0.1,0.7-0.1,1.2-0.2c0.5,0,1.2,0,2,0c1,0,1.7,0,2.3,0c0.6,0,1,0.1,1.3,0.2c0.3,0.1,0.5,0.2,0.7,0.4c0.1,0.2,0.3,0.4,0.4,0.7 L667.8,359.1z M653.4,336.4L653.4,336.4l-4.5,13.2h8.9L653.4,336.4z"/><path class="st2" d="M708.8,360.6c0,0.2,0,0.3-0.1,0.4s-0.3,0.2-0.5,0.3c-0.2,0.1-0.5,0.1-0.9,0.2c-0.4,0-0.9,0.1-1.5,0.1 c-0.6,0-1.1,0-1.5-0.1c-0.4,0-0.7-0.1-0.9-0.2c-0.2-0.1-0.4-0.2-0.5-0.3c-0.1-0.1-0.1-0.3-0.1-0.4v-25.2h0l-9.1,25.2 c-0.1,0.2-0.2,0.4-0.3,0.5c-0.1,0.1-0.3,0.2-0.6,0.3c-0.3,0.1-0.6,0.1-1,0.2c-0.4,0-0.9,0-1.4,0s-1,0-1.4-0.1c-0.4,0-0.7-0.1-1-0.2 c-0.3-0.1-0.4-0.2-0.6-0.3s-0.2-0.3-0.3-0.5l-8.8-25.2h0v25.2c0,0.2,0,0.3-0.1,0.4s-0.3,0.2-0.5,0.3c-0.2,0.1-0.6,0.1-0.9,0.2 c-0.4,0-0.9,0.1-1.5,0.1c-0.6,0-1.1,0-1.5-0.1c-0.4,0-0.7-0.1-0.9-0.2c-0.2-0.1-0.4-0.2-0.5-0.3s-0.1-0.3-0.1-0.4V333 c0-0.8,0.2-1.4,0.7-1.9c0.4-0.4,1-0.6,1.7-0.6h4.2c0.7,0,1.4,0.1,1.9,0.2c0.5,0.1,1,0.3,1.4,0.6c0.4,0.3,0.7,0.6,1,1.1 c0.3,0.5,0.5,1,0.7,1.7l6.8,18.4h0.1l7-18.4c0.2-0.7,0.4-1.2,0.7-1.7c0.2-0.5,0.5-0.8,0.9-1.1s0.7-0.5,1.2-0.6 c0.5-0.1,1-0.2,1.6-0.2h4.3c0.4,0,0.8,0.1,1.1,0.2c0.3,0.1,0.6,0.3,0.8,0.5c0.2,0.2,0.4,0.5,0.5,0.8c0.1,0.3,0.2,0.7,0.2,1.1V360.6 z"/><path class="st2" d="M752.2,360.6c0,0.2,0,0.3-0.1,0.4s-0.3,0.2-0.5,0.3c-0.2,0.1-0.5,0.1-0.9,0.2c-0.4,0-0.9,0.1-1.5,0.1 c-0.6,0-1.1,0-1.5-0.1c-0.4,0-0.7-0.1-0.9-0.2c-0.2-0.1-0.4-0.2-0.5-0.3c-0.1-0.1-0.1-0.3-0.1-0.4v-25.2h0l-9.1,25.2 c-0.1,0.2-0.2,0.4-0.3,0.5c-0.1,0.1-0.3,0.2-0.6,0.3c-0.3,0.1-0.6,0.1-1,0.2c-0.4,0-0.9,0-1.4,0s-1,0-1.4-0.1c-0.4,0-0.7-0.1-1-0.2 c-0.3-0.1-0.4-0.2-0.6-0.3s-0.2-0.3-0.3-0.5l-8.8-25.2h0v25.2c0,0.2,0,0.3-0.1,0.4s-0.3,0.2-0.5,0.3c-0.2,0.1-0.6,0.1-0.9,0.2 c-0.4,0-0.9,0.1-1.5,0.1c-0.6,0-1.1,0-1.5-0.1c-0.4,0-0.7-0.1-0.9-0.2c-0.2-0.1-0.4-0.2-0.5-0.3s-0.1-0.3-0.1-0.4V333 c0-0.8,0.2-1.4,0.7-1.9c0.4-0.4,1-0.6,1.7-0.6h4.2c0.7,0,1.4,0.1,1.9,0.2c0.5,0.1,1,0.3,1.4,0.6c0.4,0.3,0.7,0.6,1,1.1 c0.3,0.5,0.5,1,0.7,1.7l6.8,18.4h0.1l7-18.4c0.2-0.7,0.4-1.2,0.7-1.7c0.2-0.5,0.5-0.8,0.9-1.1s0.7-0.5,1.2-0.6 c0.5-0.1,1-0.2,1.6-0.2h4.3c0.4,0,0.8,0.1,1.1,0.2c0.3,0.1,0.6,0.3,0.8,0.5c0.2,0.2,0.4,0.5,0.5,0.8c0.1,0.3,0.2,0.7,0.2,1.1V360.6 z"/><path class="st2" d="M777.7,359c0,0.5,0,0.8-0.1,1.2c0,0.3-0.1,0.6-0.2,0.8c-0.1,0.2-0.2,0.3-0.3,0.4c-0.1,0.1-0.3,0.1-0.4,0.1H761 c-0.5,0-1-0.2-1.3-0.5c-0.4-0.3-0.5-0.8-0.5-1.5v-27c0-0.7,0.2-1.2,0.5-1.5c0.4-0.3,0.8-0.5,1.3-0.5h15.7c0.1,0,0.3,0,0.4,0.1 c0.1,0.1,0.2,0.2,0.3,0.4c0.1,0.2,0.1,0.5,0.2,0.8c0,0.3,0.1,0.7,0.1,1.2c0,0.4,0,0.8-0.1,1.1c0,0.3-0.1,0.6-0.2,0.8 s-0.2,0.3-0.3,0.4c-0.1,0.1-0.2,0.1-0.4,0.1h-11.2v7.6h9.5c0.1,0,0.3,0,0.4,0.1c0.1,0.1,0.2,0.2,0.3,0.4c0.1,0.2,0.1,0.4,0.2,0.7 c0,0.3,0.1,0.7,0.1,1.1c0,0.5,0,0.8-0.1,1.1c0,0.3-0.1,0.5-0.2,0.7s-0.2,0.3-0.3,0.4c-0.1,0.1-0.3,0.1-0.4,0.1h-9.5v8.7h11.3 c0.1,0,0.3,0,0.4,0.1s0.2,0.2,0.3,0.4c0.1,0.2,0.1,0.4,0.2,0.8C777.7,358.1,777.7,358.5,777.7,359z"/><path class="st2" d="M809.4,345.5c0,2.8-0.4,5.3-1.1,7.3c-0.8,2-1.8,3.7-3.2,4.9c-1.4,1.3-3.1,2.2-5.1,2.8c-2,0.6-4.4,0.9-7.2,0.9 h-7.5c-0.5,0-1-0.2-1.3-0.5c-0.4-0.3-0.5-0.8-0.5-1.5v-27c0-0.7,0.2-1.2,0.5-1.5c0.4-0.3,0.8-0.5,1.3-0.5h8.1c2.8,0,5.2,0.3,7.1,1 c1.9,0.6,3.6,1.6,4.9,2.9c1.3,1.3,2.3,2.8,3,4.7C809,340.9,809.4,343.1,809.4,345.5z M802.8,345.7c0-1.5-0.2-2.8-0.5-4.1 s-0.9-2.4-1.7-3.3c-0.8-0.9-1.8-1.6-3-2.2c-1.2-0.5-2.8-0.8-4.7-0.8h-3.2v21.1h3.3c1.7,0,3.2-0.2,4.4-0.7c1.2-0.4,2.2-1.1,3-2 s1.4-2,1.8-3.4S802.8,347.5,802.8,345.7z"/><path class="st2" d="M821,360.6c0,0.2-0.1,0.3-0.2,0.4s-0.3,0.2-0.5,0.3c-0.2,0.1-0.6,0.1-1,0.2c-0.4,0-0.9,0.1-1.6,0.1 c-0.6,0-1.1,0-1.5-0.1c-0.4,0-0.7-0.1-1-0.2c-0.2-0.1-0.4-0.2-0.5-0.3c-0.1-0.1-0.2-0.3-0.2-0.4v-29.2c0-0.2,0.1-0.3,0.2-0.4 c0.1-0.1,0.3-0.2,0.5-0.3c0.3-0.1,0.6-0.1,1-0.2c0.4,0,0.9-0.1,1.5-0.1c0.6,0,1.1,0,1.6,0.1c0.4,0,0.7,0.1,1,0.2 c0.2,0.1,0.4,0.2,0.5,0.3s0.2,0.3,0.2,0.4V360.6z"/><path class="st2" d="M853.6,359.1c0.2,0.6,0.3,1,0.4,1.4c0,0.3,0,0.6-0.2,0.8c-0.2,0.2-0.5,0.3-0.9,0.3c-0.5,0-1.1,0.1-1.9,0.1 c-0.8,0-1.5,0-1.9,0c-0.5,0-0.8-0.1-1.1-0.1c-0.2-0.1-0.4-0.2-0.5-0.3s-0.2-0.3-0.2-0.5l-2.1-6.2h-11.8l-2,6.1 c-0.1,0.2-0.1,0.4-0.3,0.6c-0.1,0.2-0.3,0.3-0.5,0.4c-0.2,0.1-0.6,0.1-1,0.2s-1,0-1.7,0c-0.7,0-1.3,0-1.7-0.1 c-0.4,0-0.7-0.2-0.9-0.3c-0.2-0.2-0.2-0.4-0.2-0.8s0.2-0.8,0.4-1.3l9.7-27.5c0.1-0.3,0.2-0.5,0.3-0.7c0.1-0.2,0.3-0.3,0.6-0.4 c0.3-0.1,0.7-0.1,1.2-0.2c0.5,0,1.2,0,2,0c1,0,1.7,0,2.3,0c0.6,0,1,0.1,1.3,0.2c0.3,0.1,0.5,0.2,0.7,0.4c0.1,0.2,0.3,0.4,0.4,0.7 L853.6,359.1z M839.2,336.4L839.2,336.4l-4.5,13.2h8.9L839.2,336.4z"/></g><g><path class="st2" d="M149.5,406.3c0,1.9-0.3,3.6-0.8,5.1c-0.6,1.5-1.4,2.8-2.5,3.8c-1.1,1-2.5,1.8-4.1,2.4 c-1.6,0.5-3.5,0.8-5.6,0.8c-2,0-3.7-0.2-5.3-0.7c-1.6-0.5-2.9-1.2-4-2.2s-1.9-2.2-2.5-3.7c-0.6-1.5-0.9-3.2-0.9-5.2v-18.8 c0-0.2,0-0.3,0.1-0.4s0.3-0.2,0.5-0.3c0.3-0.1,0.6-0.1,1-0.2c0.4,0,0.9-0.1,1.6-0.1c0.6,0,1.1,0,1.5,0.1c0.4,0,0.7,0.1,1,0.2 c0.2,0.1,0.4,0.2,0.5,0.3c0.1,0.1,0.2,0.3,0.2,0.4V406c0,1.2,0.2,2.3,0.5,3.2c0.3,0.9,0.7,1.6,1.3,2.2c0.6,0.6,1.3,1,2.1,1.3 c0.8,0.3,1.7,0.4,2.7,0.4c1,0,1.9-0.2,2.7-0.5c0.8-0.3,1.5-0.7,2-1.3c0.5-0.6,1-1.3,1.3-2.2c0.3-0.9,0.4-1.8,0.4-2.9v-18.6 c0-0.2,0-0.3,0.1-0.4c0.1-0.1,0.3-0.2,0.5-0.3c0.2-0.1,0.6-0.1,1-0.2c0.4,0,0.9-0.1,1.5-0.1c0.6,0,1.1,0,1.5,0.1 c0.4,0,0.7,0.1,1,0.2c0.2,0.1,0.4,0.2,0.5,0.3s0.1,0.3,0.1,0.4V406.3z"/><path class="st2" d="M182.2,415.6c0,0.4-0.1,0.7-0.2,1s-0.3,0.5-0.5,0.7s-0.5,0.3-0.8,0.4c-0.3,0.1-0.6,0.1-0.9,0.1h-2.7 c-0.6,0-1.1-0.1-1.5-0.2c-0.4-0.1-0.8-0.3-1.1-0.6c-0.3-0.3-0.7-0.7-1-1.2c-0.3-0.5-0.7-1.2-1.1-2l-7.8-14.5 c-0.5-0.9-0.9-1.8-1.4-2.8c-0.5-1-0.9-2-1.3-2.9h0c0.1,1.1,0.1,2.3,0.1,3.4c0,1.1,0,2.3,0,3.5V417c0,0.2,0,0.3-0.1,0.4 c-0.1,0.1-0.2,0.2-0.5,0.3c-0.2,0.1-0.5,0.2-0.9,0.2c-0.4,0-0.8,0.1-1.4,0.1c-0.6,0-1,0-1.4-0.1c-0.4,0-0.7-0.1-0.9-0.2 c-0.2-0.1-0.4-0.2-0.4-0.3c-0.1-0.1-0.1-0.3-0.1-0.4v-27.8c0-0.8,0.2-1.3,0.7-1.7s1-0.6,1.6-0.6h3.4c0.6,0,1.1,0.1,1.6,0.2 c0.4,0.1,0.8,0.3,1.1,0.5c0.3,0.2,0.6,0.6,0.9,1s0.6,0.9,0.9,1.6l6.1,11.3c0.4,0.7,0.7,1.4,1.1,2c0.3,0.7,0.7,1.3,1,2 c0.3,0.7,0.6,1.3,0.9,2c0.3,0.6,0.6,1.3,0.9,1.9h0c0-1.1-0.1-2.3-0.1-3.5c0-1.2,0-2.4,0-3.5v-14.5c0-0.2,0-0.3,0.1-0.4 c0.1-0.1,0.3-0.2,0.5-0.3c0.2-0.1,0.5-0.2,0.9-0.2c0.4,0,0.8-0.1,1.4-0.1c0.5,0,1,0,1.4,0.1c0.4,0,0.7,0.1,0.9,0.2 c0.2,0.1,0.3,0.2,0.4,0.3c0.1,0.1,0.1,0.3,0.1,0.4V415.6z"/><path class="st2" d="M195.4,417c0,0.2-0.1,0.3-0.2,0.4c-0.1,0.1-0.3,0.2-0.5,0.3c-0.2,0.1-0.6,0.1-1,0.2c-0.4,0-0.9,0.1-1.6,0.1 c-0.6,0-1.1,0-1.5-0.1c-0.4,0-0.7-0.1-1-0.2c-0.2-0.1-0.4-0.2-0.5-0.3c-0.1-0.1-0.2-0.3-0.2-0.4v-29.2c0-0.2,0.1-0.3,0.2-0.4 c0.1-0.1,0.3-0.2,0.5-0.3c0.3-0.1,0.6-0.1,1-0.2c0.4,0,0.9-0.1,1.5-0.1c0.6,0,1.1,0,1.6,0.1c0.4,0,0.7,0.1,1,0.2 c0.2,0.1,0.4,0.2,0.5,0.3c0.1,0.1,0.2,0.3,0.2,0.4V417z"/><path class="st2" d="M217.9,416.7c-0.1,0.3-0.2,0.5-0.3,0.7c-0.1,0.2-0.3,0.3-0.6,0.4c-0.3,0.1-0.7,0.1-1.2,0.2c-0.5,0-1.2,0-2,0 c-0.6,0-1.2,0-1.7,0c-0.5,0-0.9,0-1.2-0.1c-0.3,0-0.6-0.1-0.8-0.1c-0.2-0.1-0.4-0.1-0.5-0.2c-0.1-0.1-0.2-0.2-0.3-0.3 c-0.1-0.1-0.1-0.3-0.2-0.5l-9.3-27.4c-0.2-0.6-0.3-1-0.4-1.4c0-0.3,0-0.6,0.2-0.8c0.2-0.2,0.5-0.3,1-0.3c0.5,0,1.2-0.1,2-0.1 c0.7,0,1.3,0,1.7,0c0.4,0,0.7,0.1,1,0.2c0.2,0.1,0.4,0.2,0.5,0.4c0.1,0.2,0.2,0.4,0.3,0.6l7.6,23.9h0l7.5-23.8 c0.1-0.3,0.1-0.5,0.2-0.7c0.1-0.2,0.3-0.3,0.5-0.4c0.2-0.1,0.6-0.2,1-0.2c0.4,0,1,0,1.8,0c0.7,0,1.3,0,1.7,0.1 c0.4,0,0.7,0.2,0.8,0.3s0.2,0.4,0.1,0.8s-0.2,0.8-0.4,1.3L217.9,416.7z"/><path class="st2" d="M250.3,415.4c0,0.5,0,0.8-0.1,1.2c0,0.3-0.1,0.6-0.2,0.8s-0.2,0.3-0.3,0.4c-0.1,0.1-0.3,0.1-0.4,0.1h-15.8 c-0.5,0-1-0.2-1.3-0.5c-0.4-0.3-0.5-0.8-0.5-1.5v-27c0-0.7,0.2-1.2,0.5-1.5c0.4-0.3,0.8-0.5,1.3-0.5h15.7c0.1,0,0.3,0,0.4,0.1 c0.1,0.1,0.2,0.2,0.3,0.4c0.1,0.2,0.1,0.5,0.2,0.8c0,0.3,0.1,0.7,0.1,1.2c0,0.4,0,0.8-0.1,1.1c0,0.3-0.1,0.6-0.2,0.8 c-0.1,0.2-0.2,0.3-0.3,0.4c-0.1,0.1-0.2,0.1-0.4,0.1H238v7.6h9.5c0.1,0,0.3,0,0.4,0.1c0.1,0.1,0.2,0.2,0.3,0.4 c0.1,0.2,0.1,0.4,0.2,0.7c0,0.3,0.1,0.7,0.1,1.1c0,0.5,0,0.8-0.1,1.1c0,0.3-0.1,0.5-0.2,0.7s-0.2,0.3-0.3,0.4 c-0.1,0.1-0.3,0.1-0.4,0.1H238v8.7h11.3c0.1,0,0.3,0,0.4,0.1c0.1,0.1,0.2,0.2,0.3,0.4s0.1,0.4,0.2,0.8 C250.3,414.5,250.3,414.9,250.3,415.4z"/><path class="st2" d="M279.2,417c0,0.2,0,0.3-0.1,0.4c-0.1,0.1-0.2,0.2-0.5,0.3c-0.2,0.1-0.6,0.1-1.1,0.2s-1.1,0-1.9,0 c-0.7,0-1.2,0-1.6,0s-0.7-0.1-1-0.2c-0.2-0.1-0.4-0.2-0.5-0.3c-0.1-0.1-0.2-0.3-0.2-0.5l-2.8-6.9c-0.3-0.8-0.7-1.5-1-2.1 s-0.7-1.1-1.1-1.5c-0.4-0.4-0.9-0.7-1.4-0.9s-1.1-0.3-1.8-0.3h-2V417c0,0.2-0.1,0.3-0.2,0.4c-0.1,0.1-0.3,0.2-0.5,0.3 c-0.2,0.1-0.6,0.1-1,0.2c-0.4,0-0.9,0.1-1.6,0.1c-0.6,0-1.1,0-1.5-0.1c-0.4,0-0.7-0.1-1-0.2c-0.2-0.1-0.4-0.2-0.5-0.3 c-0.1-0.1-0.1-0.3-0.1-0.4v-28.1c0-0.7,0.2-1.2,0.5-1.5c0.4-0.3,0.8-0.5,1.3-0.5h8.1c0.8,0,1.5,0,2,0c0.5,0,1,0.1,1.5,0.1 c1.3,0.2,2.4,0.5,3.4,0.9c1,0.4,1.9,1,2.6,1.7c0.7,0.7,1.2,1.5,1.6,2.5c0.4,0.9,0.6,2,0.6,3.3c0,1-0.1,2-0.4,2.8 c-0.3,0.9-0.7,1.6-1.2,2.3s-1.2,1.3-1.9,1.7c-0.8,0.5-1.6,0.9-2.6,1.2c0.5,0.2,0.9,0.5,1.3,0.8s0.8,0.7,1.2,1.2 c0.4,0.5,0.7,1,1,1.6c0.3,0.6,0.6,1.2,0.9,2l2.6,6.1c0.2,0.6,0.4,1,0.5,1.3C279.2,416.7,279.2,416.9,279.2,417z M271,396 c0-1-0.2-1.9-0.7-2.6s-1.2-1.2-2.3-1.5c-0.3-0.1-0.7-0.1-1.1-0.2c-0.4,0-1-0.1-1.7-0.1h-2.9v8.8h3.3c0.9,0,1.7-0.1,2.4-0.3 c0.7-0.2,1.2-0.5,1.7-0.9c0.5-0.4,0.8-0.9,1-1.4S271,396.7,271,396z"/><path class="st2" d="M302,408.6c0,1.6-0.3,3.1-0.9,4.3c-0.6,1.2-1.4,2.3-2.5,3.1c-1.1,0.8-2.3,1.4-3.7,1.9 c-1.4,0.4-2.9,0.6-4.5,0.6c-1.1,0-2.1-0.1-3-0.3s-1.8-0.4-2.5-0.6s-1.3-0.5-1.8-0.8c-0.5-0.3-0.8-0.5-1-0.7 c-0.2-0.2-0.4-0.5-0.4-0.9c-0.1-0.4-0.1-1-0.1-1.7c0-0.5,0-0.9,0-1.2c0-0.3,0.1-0.6,0.2-0.8c0.1-0.2,0.2-0.4,0.3-0.4 c0.1-0.1,0.3-0.1,0.4-0.1c0.2,0,0.5,0.1,1,0.4c0.4,0.3,0.9,0.6,1.6,0.9c0.6,0.3,1.4,0.6,2.3,0.9c0.9,0.3,1.9,0.4,3.1,0.4 c0.8,0,1.5-0.1,2.1-0.3s1.1-0.4,1.6-0.8c0.4-0.3,0.8-0.8,1-1.2c0.2-0.5,0.3-1,0.3-1.7c0-0.7-0.2-1.3-0.6-1.8 c-0.4-0.5-0.9-0.9-1.5-1.3c-0.6-0.4-1.3-0.8-2.1-1.1c-0.8-0.3-1.6-0.7-2.5-1.1c-0.8-0.4-1.7-0.8-2.5-1.3c-0.8-0.5-1.5-1.1-2.1-1.7 c-0.6-0.7-1.1-1.5-1.5-2.4c-0.4-0.9-0.6-2-0.6-3.3c0-1.5,0.3-2.8,0.8-3.9c0.6-1.1,1.3-2.1,2.3-2.8c0.9-0.7,2.1-1.3,3.3-1.7 s2.6-0.5,4.1-0.5c0.7,0,1.5,0.1,2.2,0.2c0.7,0.1,1.4,0.3,2.1,0.5s1.2,0.4,1.7,0.6s0.8,0.4,1,0.6c0.2,0.2,0.3,0.3,0.3,0.4 c0.1,0.1,0.1,0.3,0.1,0.4c0,0.2,0.1,0.4,0.1,0.7c0,0.3,0,0.6,0,1c0,0.5,0,0.9,0,1.2c0,0.3-0.1,0.6-0.1,0.8 c-0.1,0.2-0.1,0.4-0.2,0.5s-0.2,0.1-0.4,0.1c-0.2,0-0.5-0.1-0.8-0.3c-0.4-0.2-0.9-0.5-1.4-0.7c-0.6-0.3-1.2-0.5-2-0.7 c-0.7-0.2-1.6-0.3-2.5-0.3c-0.7,0-1.3,0.1-1.8,0.3c-0.5,0.2-1,0.4-1.3,0.7s-0.6,0.6-0.8,1.1s-0.3,0.9-0.3,1.3 c0,0.7,0.2,1.3,0.6,1.8c0.4,0.5,0.9,0.9,1.5,1.3c0.6,0.4,1.4,0.8,2.2,1.1c0.8,0.3,1.6,0.7,2.5,1.1c0.8,0.4,1.7,0.8,2.5,1.3 c0.8,0.5,1.5,1.1,2.2,1.7c0.6,0.7,1.1,1.5,1.5,2.4C301.8,406.2,302,407.3,302,408.6z"/><path class="st2" d="M313.3,417c0,0.2-0.1,0.3-0.2,0.4c-0.1,0.1-0.3,0.2-0.5,0.3c-0.2,0.1-0.6,0.1-1,0.2c-0.4,0-0.9,0.1-1.6,0.1 c-0.6,0-1.1,0-1.5-0.1c-0.4,0-0.7-0.1-1-0.2c-0.2-0.1-0.4-0.2-0.5-0.3c-0.1-0.1-0.2-0.3-0.2-0.4v-29.2c0-0.2,0.1-0.3,0.2-0.4 c0.1-0.1,0.3-0.2,0.5-0.3c0.3-0.1,0.6-0.1,1-0.2c0.4,0,0.9-0.1,1.5-0.1c0.6,0,1.1,0,1.6,0.1c0.4,0,0.7,0.1,1,0.2 c0.2,0.1,0.4,0.2,0.5,0.3c0.1,0.1,0.2,0.3,0.2,0.4V417z"/><path class="st2" d="M341,389.5c0,0.5,0,0.9-0.1,1.2c0,0.3-0.1,0.6-0.2,0.8c-0.1,0.2-0.2,0.3-0.3,0.4c-0.1,0.1-0.3,0.1-0.4,0.1 h-7.9v25c0,0.2-0.1,0.3-0.2,0.4c-0.1,0.1-0.3,0.2-0.5,0.3c-0.2,0.1-0.6,0.1-1,0.2c-0.4,0-0.9,0.1-1.5,0.1c-0.6,0-1.1,0-1.5-0.1 c-0.4,0-0.7-0.1-1-0.2c-0.2-0.1-0.4-0.2-0.5-0.3c-0.1-0.1-0.2-0.3-0.2-0.4v-25H318c-0.2,0-0.3,0-0.4-0.1c-0.1-0.1-0.2-0.2-0.3-0.4 c-0.1-0.2-0.1-0.5-0.2-0.8c0-0.3-0.1-0.7-0.1-1.2c0-0.5,0-0.9,0.1-1.2c0-0.3,0.1-0.6,0.2-0.8s0.2-0.3,0.3-0.4 c0.1-0.1,0.3-0.1,0.4-0.1h22.1c0.1,0,0.3,0,0.4,0.1c0.1,0.1,0.2,0.2,0.3,0.4s0.1,0.5,0.2,0.8C341,388.6,341,389,341,389.5z"/><path class="st2" d="M363.3,415.4c0,0.5,0,0.8-0.1,1.2c0,0.3-0.1,0.6-0.2,0.8s-0.2,0.3-0.3,0.4c-0.1,0.1-0.3,0.1-0.4,0.1h-15.8 c-0.5,0-1-0.2-1.3-0.5c-0.4-0.3-0.5-0.8-0.5-1.5v-27c0-0.7,0.2-1.2,0.5-1.5c0.4-0.3,0.8-0.5,1.3-0.5h15.7c0.1,0,0.3,0,0.4,0.1 c0.1,0.1,0.2,0.2,0.3,0.4c0.1,0.2,0.1,0.5,0.2,0.8c0,0.3,0.1,0.7,0.1,1.2c0,0.4,0,0.8-0.1,1.1c0,0.3-0.1,0.6-0.2,0.8 c-0.1,0.2-0.2,0.3-0.3,0.4c-0.1,0.1-0.2,0.1-0.4,0.1h-11.2v7.6h9.5c0.1,0,0.3,0,0.4,0.1c0.1,0.1,0.2,0.2,0.3,0.4 c0.1,0.2,0.1,0.4,0.2,0.7c0,0.3,0.1,0.7,0.1,1.1c0,0.5,0,0.8-0.1,1.1c0,0.3-0.1,0.5-0.2,0.7s-0.2,0.3-0.3,0.4 c-0.1,0.1-0.3,0.1-0.4,0.1h-9.5v8.7h11.3c0.1,0,0.3,0,0.4,0.1c0.1,0.1,0.2,0.2,0.3,0.4s0.1,0.4,0.2,0.8 C363.3,414.5,363.3,414.9,363.3,415.4z M355.9,378.5c0.2-0.2,0.4-0.4,0.6-0.6c0.2-0.1,0.4-0.3,0.7-0.3c0.3-0.1,0.6-0.1,1-0.2 c0.4,0,0.9,0,1.5,0c0.7,0,1.3,0,1.7,0.1s0.7,0.2,0.8,0.4c0.2,0.2,0.2,0.3,0.1,0.5c-0.1,0.2-0.2,0.4-0.5,0.6l-5.4,4.8 c-0.2,0.1-0.3,0.3-0.5,0.4c-0.2,0.1-0.4,0.2-0.6,0.3c-0.2,0.1-0.5,0.1-0.9,0.2s-0.8,0-1.3,0c-0.5,0-1,0-1.3-0.1 c-0.3,0-0.6-0.1-0.7-0.2c-0.1-0.1-0.2-0.2-0.2-0.4c0-0.2,0.1-0.4,0.3-0.6L355.9,378.5z"/><path class="st2" d="M404.7,417c0,0.2-0.1,0.3-0.2,0.4c-0.1,0.1-0.3,0.2-0.5,0.3c-0.2,0.1-0.6,0.1-1,0.2c-0.4,0-0.9,0.1-1.5,0.1 c-0.6,0-1.2,0-1.6-0.1c-0.4,0-0.7-0.1-1-0.2c-0.2-0.1-0.4-0.2-0.5-0.3c-0.1-0.1-0.2-0.3-0.2-0.4v-12.5h-11.7V417 c0,0.2,0,0.3-0.1,0.4c-0.1,0.1-0.3,0.2-0.5,0.3c-0.2,0.1-0.6,0.1-1,0.2c-0.4,0-0.9,0.1-1.6,0.1c-0.6,0-1.1,0-1.5-0.1 c-0.4,0-0.7-0.1-1-0.2c-0.2-0.1-0.4-0.2-0.5-0.3c-0.1-0.1-0.2-0.3-0.2-0.4v-29.2c0-0.2,0.1-0.3,0.2-0.4c0.1-0.1,0.3-0.2,0.5-0.3 c0.2-0.1,0.6-0.1,1-0.2c0.4,0,0.9-0.1,1.5-0.1c0.6,0,1.1,0,1.6,0.1c0.4,0,0.7,0.1,1,0.2c0.2,0.1,0.4,0.2,0.5,0.3 c0.1,0.1,0.1,0.3,0.1,0.4v11.4h11.7v-11.4c0-0.2,0.1-0.3,0.2-0.4c0.1-0.1,0.3-0.2,0.5-0.3c0.2-0.1,0.6-0.1,1-0.2 c0.4,0,0.9-0.1,1.6-0.1c0.6,0,1.1,0,1.5,0.1c0.4,0,0.7,0.1,1,0.2c0.2,0.1,0.4,0.2,0.5,0.3c0.1,0.1,0.2,0.3,0.2,0.4V417z"/><path class="st2" d="M437.3,415.5c0.2,0.6,0.3,1,0.4,1.4c0,0.3,0,0.6-0.2,0.8c-0.2,0.2-0.5,0.3-0.9,0.3c-0.5,0-1.1,0.1-1.9,0.1 c-0.8,0-1.5,0-1.9,0c-0.5,0-0.8-0.1-1.1-0.1c-0.2-0.1-0.4-0.2-0.5-0.3s-0.2-0.3-0.2-0.5l-2.1-6.2H417l-2,6.1 c-0.1,0.2-0.1,0.4-0.3,0.6c-0.1,0.2-0.3,0.3-0.5,0.4c-0.2,0.1-0.6,0.1-1,0.2s-1,0-1.7,0c-0.7,0-1.3,0-1.7-0.1 c-0.4,0-0.7-0.2-0.9-0.3c-0.2-0.2-0.2-0.4-0.2-0.8s0.2-0.8,0.4-1.3l9.7-27.5c0.1-0.3,0.2-0.5,0.3-0.7c0.1-0.2,0.3-0.3,0.6-0.4 c0.3-0.1,0.7-0.1,1.2-0.2c0.5,0,1.2,0,2,0c1,0,1.7,0,2.3,0c0.6,0,1,0.1,1.3,0.2c0.3,0.1,0.5,0.2,0.7,0.4c0.1,0.2,0.3,0.4,0.4,0.7 L437.3,415.5z M422.9,392.8L422.9,392.8l-4.5,13.2h8.9L422.9,392.8z"/><path class="st2" d="M460.3,408.6c0,1.6-0.3,3.1-0.9,4.3c-0.6,1.2-1.4,2.3-2.5,3.1c-1.1,0.8-2.3,1.4-3.7,1.9 c-1.4,0.4-2.9,0.6-4.5,0.6c-1.1,0-2.1-0.1-3-0.3c-0.9-0.2-1.8-0.4-2.5-0.6c-0.7-0.2-1.3-0.5-1.8-0.8c-0.5-0.3-0.8-0.5-1-0.7 c-0.2-0.2-0.4-0.5-0.4-0.9s-0.1-1-0.1-1.7c0-0.5,0-0.9,0-1.2c0-0.3,0.1-0.6,0.2-0.8c0.1-0.2,0.2-0.4,0.3-0.4 c0.1-0.1,0.3-0.1,0.4-0.1c0.2,0,0.5,0.1,1,0.4c0.4,0.3,0.9,0.6,1.6,0.9c0.6,0.3,1.4,0.6,2.3,0.9c0.9,0.3,1.9,0.4,3.1,0.4 c0.8,0,1.5-0.1,2.1-0.3c0.6-0.2,1.1-0.4,1.6-0.8c0.4-0.3,0.8-0.8,1-1.2c0.2-0.5,0.3-1,0.3-1.7c0-0.7-0.2-1.3-0.6-1.8 c-0.4-0.5-0.9-0.9-1.5-1.3c-0.6-0.4-1.3-0.8-2.1-1.1c-0.8-0.3-1.6-0.7-2.5-1.1c-0.8-0.4-1.7-0.8-2.5-1.3c-0.8-0.5-1.5-1.1-2.1-1.7 s-1.1-1.5-1.5-2.4c-0.4-0.9-0.6-2-0.6-3.3c0-1.5,0.3-2.8,0.8-3.9c0.6-1.1,1.3-2.1,2.3-2.8c0.9-0.7,2.1-1.3,3.3-1.7 c1.3-0.4,2.6-0.5,4.1-0.5c0.7,0,1.5,0.1,2.2,0.2s1.4,0.3,2.1,0.5c0.6,0.2,1.2,0.4,1.7,0.6c0.5,0.2,0.8,0.4,1,0.6 c0.2,0.2,0.3,0.3,0.3,0.4s0.1,0.3,0.1,0.4c0,0.2,0.1,0.4,0.1,0.7c0,0.3,0,0.6,0,1c0,0.5,0,0.9,0,1.2c0,0.3-0.1,0.6-0.1,0.8 c-0.1,0.2-0.1,0.4-0.2,0.5c-0.1,0.1-0.2,0.1-0.4,0.1c-0.2,0-0.5-0.1-0.8-0.3c-0.4-0.2-0.9-0.5-1.4-0.7c-0.6-0.3-1.2-0.5-2-0.7 c-0.7-0.2-1.6-0.3-2.5-0.3c-0.7,0-1.3,0.1-1.8,0.3c-0.5,0.2-1,0.4-1.3,0.7c-0.3,0.3-0.6,0.6-0.8,1.1s-0.3,0.9-0.3,1.3 c0,0.7,0.2,1.3,0.6,1.8c0.4,0.5,0.9,0.9,1.5,1.3c0.6,0.4,1.4,0.8,2.2,1.1c0.8,0.3,1.6,0.7,2.5,1.1c0.8,0.4,1.7,0.8,2.5,1.3 s1.5,1.1,2.2,1.7c0.6,0.7,1.1,1.5,1.5,2.4C460.1,406.2,460.3,407.3,460.3,408.6z"/><path class="st2" d="M483.8,408.6c0,1.6-0.3,3.1-0.9,4.3c-0.6,1.2-1.4,2.3-2.5,3.1c-1.1,0.8-2.3,1.4-3.7,1.9 c-1.4,0.4-2.9,0.6-4.5,0.6c-1.1,0-2.1-0.1-3-0.3c-0.9-0.2-1.8-0.4-2.5-0.6c-0.7-0.2-1.3-0.5-1.8-0.8c-0.5-0.3-0.8-0.5-1-0.7 c-0.2-0.2-0.4-0.5-0.4-0.9s-0.1-1-0.1-1.7c0-0.5,0-0.9,0-1.2c0-0.3,0.1-0.6,0.2-0.8c0.1-0.2,0.2-0.4,0.3-0.4 c0.1-0.1,0.3-0.1,0.4-0.1c0.2,0,0.5,0.1,1,0.4c0.4,0.3,0.9,0.6,1.6,0.9c0.6,0.3,1.4,0.6,2.3,0.9c0.9,0.3,1.9,0.4,3.1,0.4 c0.8,0,1.5-0.1,2.1-0.3c0.6-0.2,1.1-0.4,1.6-0.8c0.4-0.3,0.8-0.8,1-1.2c0.2-0.5,0.3-1,0.3-1.7c0-0.7-0.2-1.3-0.6-1.8 c-0.4-0.5-0.9-0.9-1.5-1.3c-0.6-0.4-1.3-0.8-2.1-1.1c-0.8-0.3-1.6-0.7-2.5-1.1c-0.8-0.4-1.7-0.8-2.5-1.3c-0.8-0.5-1.5-1.1-2.1-1.7 s-1.1-1.5-1.5-2.4c-0.4-0.9-0.6-2-0.6-3.3c0-1.5,0.3-2.8,0.8-3.9c0.6-1.1,1.3-2.1,2.3-2.8c0.9-0.7,2.1-1.3,3.3-1.7 c1.3-0.4,2.6-0.5,4.1-0.5c0.7,0,1.5,0.1,2.2,0.2s1.4,0.3,2.1,0.5c0.6,0.2,1.2,0.4,1.7,0.6c0.5,0.2,0.8,0.4,1,0.6 c0.2,0.2,0.3,0.3,0.3,0.4s0.1,0.3,0.1,0.4c0,0.2,0.1,0.4,0.1,0.7c0,0.3,0,0.6,0,1c0,0.5,0,0.9,0,1.2c0,0.3-0.1,0.6-0.1,0.8 c-0.1,0.2-0.1,0.4-0.2,0.5c-0.1,0.1-0.2,0.1-0.4,0.1c-0.2,0-0.5-0.1-0.8-0.3c-0.4-0.2-0.9-0.5-1.4-0.7c-0.6-0.3-1.2-0.5-2-0.7 c-0.7-0.2-1.6-0.3-2.5-0.3c-0.7,0-1.3,0.1-1.8,0.3c-0.5,0.2-1,0.4-1.3,0.7c-0.3,0.3-0.6,0.6-0.8,1.1s-0.3,0.9-0.3,1.3 c0,0.7,0.2,1.3,0.6,1.8c0.4,0.5,0.9,0.9,1.5,1.3c0.6,0.4,1.4,0.8,2.2,1.1c0.8,0.3,1.6,0.7,2.5,1.1c0.8,0.4,1.7,0.8,2.5,1.3 s1.5,1.1,2.2,1.7c0.6,0.7,1.1,1.5,1.5,2.4C483.6,406.2,483.8,407.3,483.8,408.6z"/><path class="st2" d="M513.8,415.5c0.2,0.6,0.3,1,0.4,1.4c0,0.3,0,0.6-0.2,0.8c-0.2,0.2-0.5,0.3-0.9,0.3c-0.5,0-1.1,0.1-1.9,0.1 c-0.8,0-1.5,0-1.9,0c-0.5,0-0.8-0.1-1.1-0.1c-0.2-0.1-0.4-0.2-0.5-0.3s-0.2-0.3-0.2-0.5l-2.1-6.2h-11.8l-2,6.1 c-0.1,0.2-0.1,0.4-0.3,0.6c-0.1,0.2-0.3,0.3-0.5,0.4c-0.2,0.1-0.6,0.1-1,0.2s-1,0-1.7,0c-0.7,0-1.3,0-1.7-0.1 c-0.4,0-0.7-0.2-0.9-0.3c-0.2-0.2-0.2-0.4-0.2-0.8s0.2-0.8,0.4-1.3l9.7-27.5c0.1-0.3,0.2-0.5,0.3-0.7c0.1-0.2,0.3-0.3,0.6-0.4 c0.3-0.1,0.7-0.1,1.2-0.2c0.5,0,1.2,0,2,0c1,0,1.7,0,2.3,0c0.6,0,1,0.1,1.3,0.2c0.3,0.1,0.5,0.2,0.7,0.4c0.1,0.2,0.3,0.4,0.4,0.7 L513.8,415.5z M499.3,392.8L499.3,392.8l-4.5,13.2h8.9L499.3,392.8z"/><path class="st2" d="M544,415.6c0,0.4-0.1,0.7-0.2,1c-0.1,0.3-0.3,0.5-0.5,0.7s-0.5,0.3-0.8,0.4c-0.3,0.1-0.6,0.1-0.9,0.1h-2.7 c-0.6,0-1.1-0.1-1.5-0.2c-0.4-0.1-0.8-0.3-1.1-0.6s-0.7-0.7-1-1.2c-0.3-0.5-0.7-1.2-1.1-2l-7.8-14.5c-0.5-0.9-0.9-1.8-1.4-2.8 c-0.5-1-0.9-2-1.3-2.9h0c0.1,1.1,0.1,2.3,0.1,3.4c0,1.1,0,2.3,0,3.5V417c0,0.2,0,0.3-0.1,0.4c-0.1,0.1-0.2,0.2-0.5,0.3 c-0.2,0.1-0.5,0.2-0.9,0.2c-0.4,0-0.8,0.1-1.4,0.1c-0.6,0-1,0-1.4-0.1c-0.4,0-0.7-0.1-0.9-0.2c-0.2-0.1-0.4-0.2-0.4-0.3 c-0.1-0.1-0.1-0.3-0.1-0.4v-27.8c0-0.8,0.2-1.3,0.7-1.7c0.4-0.4,1-0.6,1.6-0.6h3.4c0.6,0,1.1,0.1,1.6,0.2c0.4,0.1,0.8,0.3,1.1,0.5 c0.3,0.2,0.6,0.6,0.9,1s0.6,0.9,0.9,1.6l6.1,11.3c0.4,0.7,0.7,1.4,1.1,2c0.3,0.7,0.7,1.3,1,2s0.6,1.3,0.9,2 c0.3,0.6,0.6,1.3,0.9,1.9h0c0-1.1-0.1-2.3-0.1-3.5c0-1.2,0-2.4,0-3.5v-14.5c0-0.2,0-0.3,0.1-0.4c0.1-0.1,0.3-0.2,0.5-0.3 s0.5-0.2,0.9-0.2c0.4,0,0.8-0.1,1.4-0.1c0.5,0,1,0,1.4,0.1c0.4,0,0.7,0.1,0.9,0.2s0.3,0.2,0.4,0.3c0.1,0.1,0.1,0.3,0.1,0.4V415.6z"/><path class="st2" d="M568.5,417c0,0.2-0.1,0.3-0.2,0.4s-0.3,0.2-0.5,0.3c-0.2,0.1-0.6,0.1-1,0.2c-0.4,0-0.9,0.1-1.6,0.1 c-0.6,0-1.1,0-1.5-0.1c-0.4,0-0.7-0.1-1-0.2c-0.2-0.1-0.4-0.2-0.5-0.3c-0.1-0.1-0.2-0.3-0.2-0.4v-29.2c0-0.2,0.1-0.3,0.2-0.4 c0.1-0.1,0.3-0.2,0.5-0.3c0.3-0.1,0.6-0.1,1-0.2c0.4,0,0.9-0.1,1.5-0.1c0.6,0,1.1,0,1.6,0.1c0.4,0,0.7,0.1,1,0.2 c0.2,0.1,0.4,0.2,0.5,0.3s0.2,0.3,0.2,0.4V417z"/><path class="st2" d="M581.8,417c0,0.2-0.1,0.3-0.2,0.4s-0.3,0.2-0.5,0.3c-0.2,0.1-0.6,0.1-1,0.2c-0.4,0-0.9,0.1-1.6,0.1 c-0.6,0-1.1,0-1.5-0.1c-0.4,0-0.7-0.1-1-0.2c-0.2-0.1-0.4-0.2-0.5-0.3c-0.1-0.1-0.2-0.3-0.2-0.4v-29.2c0-0.2,0.1-0.3,0.2-0.4 c0.1-0.1,0.3-0.2,0.5-0.3c0.3-0.1,0.6-0.1,1-0.2c0.4,0,0.9-0.1,1.5-0.1c0.6,0,1.1,0,1.6,0.1c0.4,0,0.7,0.1,1,0.2 c0.2,0.1,0.4,0.2,0.5,0.3s0.2,0.3,0.2,0.4V417z"/><path class="st2" d="M625.9,401.9c0,2.8-0.4,5.3-1.1,7.3c-0.8,2-1.8,3.7-3.2,4.9c-1.4,1.3-3.1,2.2-5.1,2.8c-2,0.6-4.4,0.9-7.2,0.9 h-7.5c-0.5,0-1-0.2-1.3-0.5c-0.4-0.3-0.5-0.8-0.5-1.5v-27c0-0.7,0.2-1.2,0.5-1.5c0.4-0.3,0.8-0.5,1.3-0.5h8.1c2.8,0,5.2,0.3,7.1,1 c1.9,0.6,3.6,1.6,4.9,2.9c1.3,1.3,2.3,2.8,3,4.7C625.6,397.3,625.9,399.5,625.9,401.9z M619.3,402.1c0-1.5-0.2-2.8-0.5-4.1 s-0.9-2.4-1.7-3.3c-0.8-0.9-1.8-1.6-3-2.2c-1.2-0.5-2.8-0.8-4.7-0.8h-3.2v21.1h3.3c1.7,0,3.2-0.2,4.4-0.7c1.2-0.4,2.2-1.1,3-2 s1.4-2,1.8-3.4S619.3,403.9,619.3,402.1z"/><path class="st2" d="M649.8,415.4c0,0.5,0,0.8-0.1,1.2c0,0.3-0.1,0.6-0.2,0.8c-0.1,0.2-0.2,0.3-0.3,0.4c-0.1,0.1-0.3,0.1-0.4,0.1 h-15.8c-0.5,0-1-0.2-1.3-0.5c-0.4-0.3-0.5-0.8-0.5-1.5v-27c0-0.7,0.2-1.2,0.5-1.5c0.4-0.3,0.8-0.5,1.3-0.5h15.7 c0.1,0,0.3,0,0.4,0.1c0.1,0.1,0.2,0.2,0.3,0.4c0.1,0.2,0.1,0.5,0.2,0.8c0,0.3,0.1,0.7,0.1,1.2c0,0.4,0,0.8-0.1,1.1 c0,0.3-0.1,0.6-0.2,0.8s-0.2,0.3-0.3,0.4c-0.1,0.1-0.2,0.1-0.4,0.1h-11.2v7.6h9.5c0.1,0,0.3,0,0.4,0.1c0.1,0.1,0.2,0.2,0.3,0.4 c0.1,0.2,0.1,0.4,0.2,0.7c0,0.3,0.1,0.7,0.1,1.1c0,0.5,0,0.8-0.1,1.1c0,0.3-0.1,0.5-0.2,0.7s-0.2,0.3-0.3,0.4 c-0.1,0.1-0.3,0.1-0.4,0.1h-9.5v8.7h11.3c0.1,0,0.3,0,0.4,0.1s0.2,0.2,0.3,0.4c0.1,0.2,0.1,0.4,0.2,0.8 C649.8,414.5,649.8,414.9,649.8,415.4z"/><path class="st2" d="M688.4,413.2c0,0.4,0,0.7,0,1c0,0.3-0.1,0.5-0.1,0.7c0,0.2-0.1,0.4-0.2,0.5c-0.1,0.1-0.2,0.3-0.4,0.5 c-0.2,0.2-0.5,0.4-1,0.7s-1.1,0.6-1.9,0.8c-0.7,0.3-1.6,0.5-2.5,0.7s-2,0.3-3.1,0.3c-2.2,0-4.1-0.3-5.8-1c-1.7-0.7-3.2-1.6-4.4-2.9 s-2.1-2.9-2.8-4.9c-0.6-1.9-1-4.2-1-6.8c0-2.6,0.4-5,1.1-7c0.7-2,1.7-3.8,3-5.1c1.3-1.4,2.8-2.4,4.6-3.2s3.8-1.1,5.9-1.1 c0.9,0,1.7,0.1,2.5,0.2s1.6,0.3,2.2,0.6c0.7,0.2,1.3,0.5,1.9,0.8c0.5,0.3,0.9,0.6,1.2,0.8c0.2,0.2,0.4,0.4,0.4,0.5s0.1,0.3,0.2,0.5 c0,0.2,0.1,0.5,0.1,0.8s0,0.7,0,1.1c0,0.5,0,0.9,0,1.2s-0.1,0.6-0.2,0.8s-0.2,0.4-0.3,0.5s-0.2,0.1-0.4,0.1c-0.2,0-0.6-0.1-0.9-0.4 c-0.4-0.3-0.9-0.6-1.4-0.9c-0.6-0.3-1.3-0.7-2.1-0.9c-0.8-0.3-1.8-0.4-2.9-0.4c-1.2,0-2.4,0.3-3.3,0.8c-1,0.5-1.8,1.2-2.5,2.2 c-0.7,0.9-1.2,2.1-1.6,3.4c-0.4,1.3-0.5,2.8-0.5,4.5c0,1.8,0.2,3.4,0.6,4.7s0.9,2.4,1.6,3.3c0.7,0.9,1.6,1.5,2.5,1.9 c1,0.4,2.1,0.6,3.4,0.6c1.1,0,2.1-0.1,2.9-0.4c0.8-0.3,1.5-0.6,2.1-0.9c0.6-0.3,1.1-0.6,1.5-0.9c0.4-0.3,0.7-0.4,0.9-0.4 c0.2,0,0.3,0,0.4,0.1c0.1,0.1,0.2,0.2,0.2,0.4c0.1,0.2,0.1,0.5,0.1,0.8C688.3,412.1,688.4,412.6,688.4,413.2z"/><path class="st2" d="M718.7,415.5c0.2,0.6,0.3,1,0.4,1.4c0,0.3,0,0.6-0.2,0.8c-0.2,0.2-0.5,0.3-0.9,0.3c-0.5,0-1.1,0.1-1.9,0.1 c-0.8,0-1.5,0-1.9,0c-0.5,0-0.8-0.1-1.1-0.1c-0.2-0.1-0.4-0.2-0.5-0.3s-0.2-0.3-0.2-0.5l-2.1-6.2h-11.8l-2,6.1 c-0.1,0.2-0.1,0.4-0.3,0.6c-0.1,0.2-0.3,0.3-0.5,0.4c-0.2,0.1-0.6,0.1-1,0.2s-1,0-1.7,0c-0.7,0-1.3,0-1.7-0.1 c-0.4,0-0.7-0.2-0.9-0.3c-0.2-0.2-0.2-0.4-0.2-0.8s0.2-0.8,0.4-1.3l9.7-27.5c0.1-0.3,0.2-0.5,0.3-0.7c0.1-0.2,0.3-0.3,0.6-0.4 c0.3-0.1,0.7-0.1,1.2-0.2c0.5,0,1.2,0,2,0c1,0,1.7,0,2.3,0c0.6,0,1,0.1,1.3,0.2c0.3,0.1,0.5,0.2,0.7,0.4c0.1,0.2,0.3,0.4,0.4,0.7 L718.7,415.5z M704.3,392.8L704.3,392.8l-4.5,13.2h8.9L704.3,392.8z"/><path class="st2" d="M741.7,408.6c0,1.6-0.3,3.1-0.9,4.3c-0.6,1.2-1.4,2.3-2.5,3.1c-1.1,0.8-2.3,1.4-3.7,1.9 c-1.4,0.4-2.9,0.6-4.5,0.6c-1.1,0-2.1-0.1-3-0.3c-0.9-0.2-1.8-0.4-2.5-0.6c-0.7-0.2-1.3-0.5-1.8-0.8c-0.5-0.3-0.8-0.5-1-0.7 c-0.2-0.2-0.4-0.5-0.4-0.9s-0.1-1-0.1-1.7c0-0.5,0-0.9,0-1.2c0-0.3,0.1-0.6,0.2-0.8c0.1-0.2,0.2-0.4,0.3-0.4 c0.1-0.1,0.3-0.1,0.4-0.1c0.2,0,0.5,0.1,1,0.4c0.4,0.3,0.9,0.6,1.6,0.9c0.6,0.3,1.4,0.6,2.3,0.9c0.9,0.3,1.9,0.4,3.1,0.4 c0.8,0,1.5-0.1,2.1-0.3c0.6-0.2,1.1-0.4,1.6-0.8c0.4-0.3,0.8-0.8,1-1.2c0.2-0.5,0.3-1,0.3-1.7c0-0.7-0.2-1.3-0.6-1.8 c-0.4-0.5-0.9-0.9-1.5-1.3c-0.6-0.4-1.3-0.8-2.1-1.1c-0.8-0.3-1.6-0.7-2.5-1.1c-0.8-0.4-1.7-0.8-2.5-1.3c-0.8-0.5-1.5-1.1-2.1-1.7 s-1.1-1.5-1.5-2.4c-0.4-0.9-0.6-2-0.6-3.3c0-1.5,0.3-2.8,0.8-3.9c0.6-1.1,1.3-2.1,2.3-2.8c0.9-0.7,2.1-1.3,3.3-1.7 c1.3-0.4,2.6-0.5,4.1-0.5c0.7,0,1.5,0.1,2.2,0.2s1.4,0.3,2.1,0.5c0.6,0.2,1.2,0.4,1.7,0.6c0.5,0.2,0.8,0.4,1,0.6 c0.2,0.2,0.3,0.3,0.3,0.4s0.1,0.3,0.1,0.4c0,0.2,0.1,0.4,0.1,0.7c0,0.3,0,0.6,0,1c0,0.5,0,0.9,0,1.2c0,0.3-0.1,0.6-0.1,0.8 c-0.1,0.2-0.1,0.4-0.2,0.5c-0.1,0.1-0.2,0.1-0.4,0.1c-0.2,0-0.5-0.1-0.8-0.3c-0.4-0.2-0.9-0.5-1.4-0.7c-0.6-0.3-1.2-0.5-2-0.7 c-0.7-0.2-1.6-0.3-2.5-0.3c-0.7,0-1.3,0.1-1.8,0.3c-0.5,0.2-1,0.4-1.3,0.7c-0.3,0.3-0.6,0.6-0.8,1.1s-0.3,0.9-0.3,1.3 c0,0.7,0.2,1.3,0.6,1.8c0.4,0.5,0.9,0.9,1.5,1.3c0.6,0.4,1.4,0.8,2.2,1.1c0.8,0.3,1.6,0.7,2.5,1.1c0.8,0.4,1.7,0.8,2.5,1.3 s1.5,1.1,2.2,1.7c0.6,0.7,1.1,1.5,1.5,2.4C741.5,406.2,741.7,407.3,741.7,408.6z"/><path class="st2" d="M771.7,415.5c0.2,0.6,0.3,1,0.4,1.4c0,0.3,0,0.6-0.2,0.8c-0.2,0.2-0.5,0.3-0.9,0.3c-0.5,0-1.1,0.1-1.9,0.1 c-0.8,0-1.5,0-1.9,0c-0.5,0-0.8-0.1-1.1-0.1c-0.2-0.1-0.4-0.2-0.5-0.3s-0.2-0.3-0.2-0.5l-2.1-6.2h-11.8l-2,6.1 c-0.1,0.2-0.1,0.4-0.3,0.6c-0.1,0.2-0.3,0.3-0.5,0.4c-0.2,0.1-0.6,0.1-1,0.2s-1,0-1.7,0c-0.7,0-1.3,0-1.7-0.1 c-0.4,0-0.7-0.2-0.9-0.3c-0.2-0.2-0.2-0.4-0.2-0.8s0.2-0.8,0.4-1.3l9.7-27.5c0.1-0.3,0.2-0.5,0.3-0.7c0.1-0.2,0.3-0.3,0.6-0.4 c0.3-0.1,0.7-0.1,1.2-0.2c0.5,0,1.2,0,2,0c1,0,1.7,0,2.3,0c0.6,0,1,0.1,1.3,0.2c0.3,0.1,0.5,0.2,0.7,0.4c0.1,0.2,0.3,0.4,0.4,0.7 L771.7,415.5z M757.2,392.8L757.2,392.8l-4.5,13.2h8.9L757.2,392.8z"/><path class="st2" d="M798.8,408.6c0,1.1-0.2,2.1-0.5,3c-0.3,0.9-0.7,1.7-1.3,2.4s-1.2,1.3-1.9,1.8s-1.6,0.9-2.5,1.2 c-0.9,0.3-1.9,0.6-2.9,0.7c-1,0.2-2.2,0.2-3.4,0.2h-8.3c-0.5,0-1-0.2-1.3-0.5c-0.4-0.3-0.5-0.8-0.5-1.5v-27c0-0.7,0.2-1.2,0.5-1.5 c0.4-0.3,0.8-0.5,1.3-0.5h7.9c1.9,0,3.6,0.2,4.9,0.5c1.3,0.3,2.5,0.8,3.4,1.4c0.9,0.6,1.6,1.5,2.1,2.5c0.5,1,0.7,2.2,0.7,3.5 c0,0.7-0.1,1.5-0.3,2.1c-0.2,0.7-0.5,1.3-0.8,1.8c-0.4,0.5-0.8,1-1.4,1.4c-0.5,0.4-1.2,0.7-1.9,1c0.9,0.2,1.7,0.4,2.5,0.8 c0.8,0.4,1.4,0.9,2,1.5c0.6,0.6,1,1.4,1.3,2.2C798.6,406.6,798.8,407.5,798.8,408.6z M790.5,395.5c0-0.6-0.1-1.2-0.3-1.7 c-0.2-0.5-0.5-0.9-0.9-1.2c-0.4-0.3-0.9-0.6-1.5-0.8c-0.6-0.2-1.4-0.3-2.4-0.3h-3.2v8h3.6c0.9,0,1.7-0.1,2.2-0.3 c0.5-0.2,1-0.5,1.4-0.9c0.4-0.4,0.6-0.8,0.8-1.3C790.4,396.6,790.5,396.1,790.5,395.5z M792.2,408.8c0-0.7-0.1-1.4-0.4-1.9 c-0.2-0.6-0.6-1-1.1-1.4c-0.5-0.4-1.1-0.7-1.8-0.9c-0.7-0.2-1.7-0.3-2.8-0.3h-3.8v8.8h4.6c0.9,0,1.6-0.1,2.2-0.3 c0.6-0.2,1.1-0.5,1.6-0.8c0.4-0.4,0.8-0.8,1-1.3C792,410.1,792.2,409.5,792.2,408.8z"/><path class="st2" d="M821.2,415.2c0,0.5,0,0.9-0.1,1.2c0,0.3-0.1,0.6-0.2,0.8c-0.1,0.2-0.2,0.4-0.3,0.5c-0.1,0.1-0.3,0.1-0.4,0.1 h-14.4c-0.5,0-1-0.2-1.3-0.5c-0.4-0.3-0.5-0.8-0.5-1.5v-28.1c0-0.2,0.1-0.3,0.2-0.4c0.1-0.1,0.3-0.2,0.5-0.3c0.2-0.1,0.6-0.1,1-0.2 c0.4,0,0.9-0.1,1.5-0.1c0.6,0,1.1,0,1.6,0.1c0.4,0,0.7,0.1,1,0.2c0.2,0.1,0.4,0.2,0.5,0.3s0.2,0.3,0.2,0.4v24.9h9.9 c0.2,0,0.3,0,0.4,0.1c0.1,0.1,0.2,0.2,0.3,0.4c0.1,0.2,0.1,0.5,0.2,0.8C821.1,414.3,821.2,414.7,821.2,415.2z"/><path class="st2" d="M850.6,415.5c0.2,0.6,0.3,1,0.4,1.4c0,0.3,0,0.6-0.2,0.8c-0.2,0.2-0.5,0.3-0.9,0.3c-0.5,0-1.1,0.1-1.9,0.1 c-0.8,0-1.5,0-1.9,0c-0.5,0-0.8-0.1-1.1-0.1c-0.2-0.1-0.4-0.2-0.5-0.3s-0.2-0.3-0.2-0.5l-2.1-6.2h-11.8l-2,6.1 c-0.1,0.2-0.1,0.4-0.3,0.6c-0.1,0.2-0.3,0.3-0.5,0.4c-0.2,0.1-0.6,0.1-1,0.2s-1,0-1.7,0c-0.7,0-1.3,0-1.7-0.1 c-0.4,0-0.7-0.2-0.9-0.3c-0.2-0.2-0.2-0.4-0.2-0.8s0.2-0.8,0.4-1.3l9.7-27.5c0.1-0.3,0.2-0.5,0.3-0.7c0.1-0.2,0.3-0.3,0.6-0.4 c0.3-0.1,0.7-0.1,1.2-0.2c0.5,0,1.2,0,2,0c1,0,1.7,0,2.3,0c0.6,0,1,0.1,1.3,0.2c0.3,0.1,0.5,0.2,0.7,0.4c0.1,0.2,0.3,0.4,0.4,0.7 L850.6,415.5z M836.2,392.8L836.2,392.8l-4.5,13.2h8.9L836.2,392.8z"/><path class="st2" d="M880.9,415.6c0,0.4-0.1,0.7-0.2,1c-0.1,0.3-0.3,0.5-0.5,0.7s-0.5,0.3-0.8,0.4c-0.3,0.1-0.6,0.1-0.9,0.1h-2.7 c-0.6,0-1.1-0.1-1.5-0.2c-0.4-0.1-0.8-0.3-1.1-0.6s-0.7-0.7-1-1.2c-0.3-0.5-0.7-1.2-1.1-2l-7.8-14.5c-0.5-0.9-0.9-1.8-1.4-2.8 c-0.5-1-0.9-2-1.3-2.9h0c0.1,1.1,0.1,2.3,0.1,3.4c0,1.1,0,2.3,0,3.5V417c0,0.2,0,0.3-0.1,0.4c-0.1,0.1-0.2,0.2-0.5,0.3 c-0.2,0.1-0.5,0.2-0.9,0.2c-0.4,0-0.8,0.1-1.4,0.1c-0.6,0-1,0-1.4-0.1c-0.4,0-0.7-0.1-0.9-0.2c-0.2-0.1-0.4-0.2-0.4-0.3 c-0.1-0.1-0.1-0.3-0.1-0.4v-27.8c0-0.8,0.2-1.3,0.7-1.7c0.4-0.4,1-0.6,1.6-0.6h3.4c0.6,0,1.1,0.1,1.6,0.2c0.4,0.1,0.8,0.3,1.1,0.5 c0.3,0.2,0.6,0.6,0.9,1s0.6,0.9,0.9,1.6l6.1,11.3c0.4,0.7,0.7,1.4,1.1,2c0.3,0.7,0.7,1.3,1,2s0.6,1.3,0.9,2 c0.3,0.6,0.6,1.3,0.9,1.9h0c0-1.1-0.1-2.3-0.1-3.5c0-1.2,0-2.4,0-3.5v-14.5c0-0.2,0-0.3,0.1-0.4c0.1-0.1,0.3-0.2,0.5-0.3 s0.5-0.2,0.9-0.2c0.4,0,0.8-0.1,1.4-0.1c0.5,0,1,0,1.4,0.1c0.4,0,0.7,0.1,0.9,0.2s0.3,0.2,0.4,0.3c0.1,0.1,0.1,0.3,0.1,0.4V415.6z"/><path class="st2" d="M909.5,413.2c0,0.4,0,0.7,0,1c0,0.3-0.1,0.5-0.1,0.7c0,0.2-0.1,0.4-0.2,0.5c-0.1,0.1-0.2,0.3-0.4,0.5 c-0.2,0.2-0.5,0.4-1,0.7s-1.1,0.6-1.9,0.8c-0.7,0.3-1.6,0.5-2.5,0.7s-2,0.3-3.1,0.3c-2.2,0-4.1-0.3-5.8-1c-1.7-0.7-3.2-1.6-4.4-2.9 s-2.1-2.9-2.8-4.9c-0.6-1.9-1-4.2-1-6.8c0-2.6,0.4-5,1.1-7c0.7-2,1.7-3.8,3-5.1c1.3-1.4,2.8-2.4,4.6-3.2s3.8-1.1,5.9-1.1 c0.9,0,1.7,0.1,2.5,0.2s1.6,0.3,2.2,0.6c0.7,0.2,1.3,0.5,1.9,0.8c0.5,0.3,0.9,0.6,1.2,0.8c0.2,0.2,0.4,0.4,0.4,0.5s0.1,0.3,0.2,0.5 c0,0.2,0.1,0.5,0.1,0.8s0,0.7,0,1.1c0,0.5,0,0.9,0,1.2s-0.1,0.6-0.2,0.8s-0.2,0.4-0.3,0.5s-0.2,0.1-0.4,0.1c-0.2,0-0.6-0.1-0.9-0.4 c-0.4-0.3-0.9-0.6-1.4-0.9c-0.6-0.3-1.3-0.7-2.1-0.9c-0.8-0.3-1.8-0.4-2.9-0.4c-1.2,0-2.4,0.3-3.3,0.8c-1,0.5-1.8,1.2-2.5,2.2 c-0.7,0.9-1.2,2.1-1.6,3.4c-0.4,1.3-0.5,2.8-0.5,4.5c0,1.8,0.2,3.4,0.6,4.7s0.9,2.4,1.6,3.3c0.7,0.9,1.6,1.5,2.5,1.9 c1,0.4,2.1,0.6,3.4,0.6c1.1,0,2.1-0.1,2.9-0.4c0.8-0.3,1.5-0.6,2.1-0.9c0.6-0.3,1.1-0.6,1.5-0.9c0.4-0.3,0.7-0.4,0.9-0.4 c0.2,0,0.3,0,0.4,0.1c0.1,0.1,0.2,0.2,0.2,0.4c0.1,0.2,0.1,0.5,0.1,0.8C909.5,412.1,909.5,412.6,909.5,413.2z"/><path class="st2" d="M939.8,415.5c0.2,0.6,0.3,1,0.4,1.4c0,0.3,0,0.6-0.2,0.8c-0.2,0.2-0.5,0.3-0.9,0.3c-0.5,0-1.1,0.1-1.9,0.1 c-0.8,0-1.5,0-1.9,0c-0.5,0-0.8-0.1-1.1-0.1c-0.2-0.1-0.4-0.2-0.5-0.3s-0.2-0.3-0.2-0.5l-2.1-6.2h-11.8l-2,6.1 c-0.1,0.2-0.1,0.4-0.3,0.6c-0.1,0.2-0.3,0.3-0.5,0.4c-0.2,0.1-0.6,0.1-1,0.2s-1,0-1.7,0c-0.7,0-1.3,0-1.7-0.1 c-0.4,0-0.7-0.2-0.9-0.3c-0.2-0.2-0.2-0.4-0.2-0.8s0.2-0.8,0.4-1.3l9.7-27.5c0.1-0.3,0.2-0.5,0.3-0.7c0.1-0.2,0.3-0.3,0.6-0.4 c0.3-0.1,0.7-0.1,1.2-0.2c0.5,0,1.2,0,2,0c1,0,1.7,0,2.3,0c0.6,0,1,0.1,1.3,0.2c0.3,0.1,0.5,0.2,0.7,0.4c0.1,0.2,0.3,0.4,0.4,0.7 L939.8,415.5z M925.4,392.8L925.4,392.8l-4.5,13.2h8.9L925.4,392.8z"/></g></svg>