<svg version="1.1" id="Layer_1" xmlns="http://www.w3.org/2000/svg" x="0px" y="0px"
    viewBox="0 0 1030 233" style="enable-background:new 0 0 1030 233" xml:space="preserve"><style>.st0{fill:#004C83}.st1{fill:#818284}</style><g id="_x23_004c83ff"><path class="st0" d="M374,0c14,0,28,0,42,0c0,77.7,0,155.3,0,233c-14,0-28,0-42,0C374,155.3,374,77.7,374,0z"/><path class="st0" d="M0,2.8c18.1,0,36.2-0.1,54.3,0c-0.1,1.5-0.2,3-0.3,4.5c-5.1,0.1-10.9,1-14.4,5.2c-2,2.3-2.3,5.5-2.3,8.4 c0.1,20.4,0,40.7,0.1,61.1c0.7,9.5,3.8,19.2,10.2,26.4c12.3,12.8,37.1,11.2,46.4-4.5c5.6-8.9,7.5-19.6,6.9-30 c0.1-17.3,0.1-34.7,0.1-52.1c0.2-4.7-1.7-9.6-5.7-12.3c-3.5-2.3-7.9-2.2-11.9-2.1c0-1.5,0-3,0-4.5c12.5-0.6,25-0.1,37.6-0.3 c5.2,0.1,10.5-0.2,15.7,0.2c0,1.5-0.1,3-0.1,4.5c-4.4,0-9.3,0.2-12.9,3.3c-3,2.4-4.1,6.5-4,10.2c0,18.7,0,37.4,0,56.1 c-0.5,13.3-4.5,27-13.8,36.8C98.2,122,87,125.9,76,126c-12.5,1.2-26,1.1-36.9-6.1c-13.4-8.4-19.6-24.3-20.6-39.5 c-0.9-19.5-0.7-39-0.4-58.5c-0.1-4.4-1.2-9.4-5-12.1C9.3,7.4,4.4,7.6,0,7.2C0,5.8,0,4.3,0,2.8z"/><path class="st0" d="M210,2.6c24.3-0.1,48.7,0,73-0.1c12.9,0.1,26.1,6.2,33.1,17.4c9.3,14.4,9.8,32.4,8.6,49 c-21.2-0.3-42.7-0.3-63.2,5.7c-11.1,3.3-22.5,8.8-29,18.8c-3.7,5.5-4.8,12.3-4.1,18.8c-6.1,0-12.3,0.1-18.4,0 c0-13.4,3.1-27.2,11.3-38c7.8-10.5,19.8-17.7,32.5-20.6c19.8-4.6,40.1-6.4,60.4-7.2c-1.5-6.9-5.8-13.1-11.8-16.8 c-6.6-4.1-14.6-5.8-22.3-5.7c-18,0.2-36,0-54.1,0.1c-3.6,0-7.4,1.3-9.6,4.3c-3.7,4.6-3.7,10.8-3.6,16.5c-0.7,0-2,0-2.7,0 C209.8,30.8,210,16.7,210,2.6z"/><path class="st0" d="M239.4,93.9c5.7-7.8,15.7-11.2,25-11.2c-3.8,6-8.7,11.4-11.5,18C248.4,98.6,243.8,96.4,239.4,93.9z"/></g><g id="_x23_818284ff"><path class="st1" d="M146,3c6,0,12,0,18,0c0,75.3,0,150.6,0,226c-6,0-12,0-18,0C146,153.7,146,78.3,146,3z"/><path class="st1" d="M174,3c6,0,12,0,18,0c0,75.3,0,150.6,0,226c-6,0-12,0-18,0C174,153.7,174,78.3,174,3z"/><path class="st1" d="M19.1,104.9c2.9,5.3,5.5,10.9,9.9,15.1c2,2.3,5,3.7,6.8,6.2c0.5,2.6,0.4,5.2,0.5,7.8c0.2,25.7-0.3,51.3-0.4,77 c0,4.9,1.8,10.2,5.9,13.2c3.5,2.5,7.9,2.4,11.9,3c0,0.6,0,1.8,0,2.4c-17.5-0.1-35-0.1-52.5,0C1.1,229,1,227.7,1,227 c5.3-0.2,11.3-0.8,14.8-5.2c3.9-4.7,2.8-11.1,2.9-16.8C18.9,171.6,18.6,138.3,19.1,104.9z"/><path class="st1" d="M110.2,118.1c3.5-3.9,5.4-8.9,8.4-13.2c-0.1,35.4,0.1,70.7,0.1,106.1c-0.1,4.3,0.8,9.1,4.2,12.1 c3.7,3.5,9.1,3.5,13.8,4.1c0,0.6,0,1.8,0,2.4c-17.5,0-35-0.1-52.5,0.1c-0.1-0.7-0.2-2-0.3-2.7c3.9-0.3,8.2-0.3,11.6-2.6 c4.1-2.7,6-7.7,6.1-12.4c0.1-27-0.7-54-0.3-81.1c0.2-1.7-0.2-3.6,0.7-5.1C104.6,123.2,107.8,121.1,110.2,118.1z"/><path class="st1" d="M209.8,120c24.1-0.1,48.2,0,72.2-0.1c12.4-0.1,25.2,5.2,32.5,15.5c10.4,14.6,11.5,33.6,9.6,50.9 c-22.5-0.6-45.5-0.3-67,6.9c-10.6,3.7-21.4,9.9-26.5,20.4c-2.7,4.9-2.6,10.6-2.8,16.1c-6-0.1-12-0.1-18,0 c-0.6-14.5,3.6-29.5,13.1-40.7c7.6-8.8,18.1-15,29.4-17.7c20.2-4.8,41-6.6,61.6-7.6c-1.9-7-6.2-13.5-12.7-17.1 c-7.9-4.7-17.4-5.7-26.4-5.2c-16.3,0.1-32.7,0-49,0c-3.6,0-7.3,1.1-9.7,4c-3.8,4.6-4,10.8-3.7,16.5c-0.7,0-2.1,0.2-2.9,0.2 C209.5,148,209.6,134,209.8,120z"/><path class="st1" d="M44,163c16.3,0,32.7,0,49,0c0,3,0,6,0,9c-16.3,0-32.7,0-49,0C44,169,44,166,44,163z"/></g><path class="st0" d="M456,1c0,76.7,0,153.3,0,230c191.3,0,382.7,0,574,0c0-76.7,0-153.3,0-230C838.7,1,647.3,1,456,1z M553.4,177.4	c-0.1,1.1-0.4,2.1-0.7,2.8c-0.3,0.7-0.7,1.2-1.1,1.5c-0.4,0.3-0.9,0.5-1.5,0.5h-57.1c-1.9,0-3.6-0.6-4.9-1.7s-2-3-2-5.6V75.8	c0-2.6,0.7-4.4,2-5.6s2.9-1.7,4.9-1.7h56.8c0.5,0,1,0.1,1.4,0.4c0.4,0.3,0.8,0.8,1.1,1.5c0.3,0.7,0.5,1.7,0.7,2.8	c0.1,1.1,0.2,2.6,0.2,4.4c0,1.6-0.1,3-0.2,4.2c-0.1,1.1-0.4,2.1-0.7,2.8c-0.3,0.7-0.6,1.2-1.1,1.5c-0.4,0.3-0.9,0.5-1.4,0.5h-40.6	v27.8h34.4c0.5,0,1,0.2,1.5,0.5c0.4,0.3,0.8,0.8,1.1,1.5c0.3,0.7,0.5,1.6,0.7,2.7c0.1,1.1,0.2,2.5,0.2,4.2c0,1.7-0.1,3.1-0.2,4.2	c-0.1,1.1-0.4,2-0.7,2.7c-0.3,0.7-0.7,1.2-1.1,1.5c-0.4,0.3-0.9,0.4-1.5,0.4h-34.4v32.1h41c0.5,0,1,0.2,1.5,0.5	c0.4,0.3,0.8,0.8,1.1,1.5c0.3,0.7,0.5,1.6,0.7,2.8c0.1,1.1,0.2,2.6,0.2,4.3C553.6,174.9,553.6,176.3,553.4,177.4z M685.8,174.1	c0,1.3-0.2,2.5-0.7,3.6c-0.5,1.1-1.1,1.9-1.9,2.6s-1.7,1.2-2.8,1.5c-1.1,0.3-2.2,0.5-3.3,0.5h-9.8c-2.1,0-3.8-0.2-5.3-0.6	c-1.5-0.4-2.9-1.2-4.1-2.2c-1.3-1.1-2.5-2.5-3.6-4.4c-1.2-1.8-2.5-4.2-4-7.2l-28.3-53.2c-1.6-3.2-3.3-6.6-5-10.2	c-1.7-3.7-3.2-7.2-4.6-10.7h-0.2c0.2,4.2,0.4,8.4,0.5,12.6c0.1,4.2,0.2,8.5,0.2,13V179c0,0.6-0.2,1.1-0.5,1.6	c-0.3,0.5-0.9,0.9-1.7,1.2c-0.8,0.3-1.9,0.6-3.2,0.7c-1.3,0.2-3.1,0.3-5.2,0.3c-2.1,0-3.8-0.1-5.1-0.3c-1.3-0.2-2.4-0.4-3.2-0.7	c-0.8-0.3-1.3-0.7-1.6-1.2c-0.3-0.5-0.4-1-0.4-1.6V76.7c0-2.8,0.8-4.8,2.4-6.2c1.6-1.4,3.6-2.1,5.9-2.1h12.4c2.2,0,4.1,0.2,5.6,0.6	c1.5,0.4,2.9,1,4.1,1.9c1.2,0.9,2.3,2.1,3.4,3.6c1.1,1.6,2.1,3.5,3.3,5.8l22.1,41.6c1.3,2.5,2.6,5,3.8,7.4c1.3,2.4,2.5,4.9,3.6,7.3	c1.2,2.4,2.3,4.8,3.4,7.2c1.1,2.3,2.2,4.7,3.3,7h0.1c-0.2-4.1-0.3-8.4-0.4-12.8c-0.1-4.5-0.1-8.7-0.1-12.7V71.9	c0-0.6,0.2-1.1,0.5-1.6c0.4-0.5,0.9-0.9,1.8-1.2c0.8-0.4,1.9-0.6,3.3-0.7c1.3-0.1,3.1-0.2,5.2-0.2c2,0,3.7,0.1,5,0.2	c1.3,0.1,2.4,0.4,3.1,0.7c0.7,0.4,1.2,0.8,1.5,1.2c0.3,0.5,0.4,1,0.4,1.6V174.1z M792.7,163.8c-2.2,4.5-5.2,8.3-9.1,11.3	c-3.8,3-8.3,5.3-13.4,6.8c-5.1,1.5-10.5,2.3-16.3,2.3c-3.9,0-7.6-0.3-10.9-1c-3.4-0.6-6.3-1.4-8.9-2.3c-2.6-0.9-4.7-1.9-6.5-2.9	c-1.7-1-3-1.9-3.7-2.6c-0.8-0.8-1.3-1.9-1.6-3.3c-0.3-1.4-0.5-3.5-0.5-6.2c0-1.8,0.1-3.3,0.2-4.6c0.1-1.2,0.3-2.2,0.6-3	c0.3-0.8,0.6-1.3,1.1-1.6c0.4-0.3,1-0.5,1.5-0.5c0.8,0,2,0.5,3.5,1.5s3.4,2,5.8,3.2c2.3,1.2,5.1,2.2,8.4,3.2s7,1.5,11.3,1.5	c2.8,0,5.3-0.3,7.6-1c2.2-0.7,4.1-1.6,5.7-2.9c1.6-1.2,2.7-2.8,3.6-4.6c0.8-1.8,1.2-3.8,1.2-6.1c0-2.6-0.7-4.8-2.1-6.6	s-3.2-3.5-5.5-4.9c-2.3-1.4-4.8-2.8-7.7-4c-2.9-1.3-5.8-2.6-8.9-4c-3-1.4-6-3-8.9-4.8c-2.9-1.8-5.4-3.9-7.7-6.4	c-2.3-2.5-4.1-5.4-5.5-8.8c-1.4-3.4-2.1-7.5-2.1-12.2c0-5.4,1-10.2,3-14.4s4.7-7.6,8.2-10.3s7.5-4.8,12.1-6.1c4.7-1.3,9.6-2,14.8-2	c2.7,0,5.4,0.2,8.1,0.6c2.7,0.4,5.2,1,7.6,1.7c2.3,0.7,4.4,1.5,6.2,2.4c1.8,0.9,3,1.6,3.6,2.2c0.6,0.6,1,1.1,1.2,1.5	c0.2,0.4,0.4,1,0.5,1.6c0.1,0.7,0.2,1.5,0.3,2.5c0.1,1,0.1,2.3,0.1,3.8c0,1.7,0,3.1-0.1,4.3c-0.1,1.2-0.2,2.1-0.4,2.9	c-0.2,0.8-0.5,1.3-0.9,1.7c-0.4,0.4-0.9,0.5-1.5,0.5c-0.6,0-1.7-0.4-3.1-1.2c-1.4-0.8-3.1-1.7-5.2-2.7c-2.1-1-4.4-1.8-7.1-2.6	c-2.7-0.8-5.7-1.2-8.9-1.2c-2.5,0-4.7,0.3-6.6,0.9c-1.9,0.6-3.4,1.5-4.7,2.5c-1.3,1.1-2.2,2.4-2.8,3.9c-0.6,1.5-0.9,3.1-0.9,4.8	c0,2.5,0.7,4.7,2.1,6.5c1.4,1.8,3.2,3.5,5.5,4.9c2.3,1.4,4.9,2.8,7.9,4c2.9,1.3,5.9,2.6,9,4c3,1.4,6,3,9,4.8	c2.9,1.8,5.5,3.9,7.8,6.4c2.3,2.5,4.1,5.4,5.5,8.8c1.4,3.4,2.1,7.3,2.1,11.9C796,154.1,794.9,159.3,792.7,163.8z M898.9,177.4	c-0.1,1.1-0.4,2.1-0.7,2.8c-0.3,0.7-0.7,1.2-1.1,1.5c-0.4,0.3-0.9,0.5-1.5,0.5h-57.1c-1.9,0-3.6-0.6-4.9-1.7s-2-3-2-5.6V75.8	c0-2.6,0.7-4.4,2-5.6s2.9-1.7,4.9-1.7h56.8c0.5,0,1,0.1,1.4,0.4c0.4,0.3,0.8,0.8,1.1,1.5c0.3,0.7,0.5,1.7,0.7,2.8	c0.1,1.1,0.2,2.6,0.2,4.4c0,1.6-0.1,3-0.2,4.2c-0.1,1.1-0.4,2.1-0.7,2.8c-0.3,0.7-0.6,1.2-1.1,1.5c-0.4,0.3-0.9,0.5-1.4,0.5h-40.6	v27.8h34.4c0.5,0,1,0.2,1.5,0.5c0.4,0.3,0.8,0.8,1.1,1.5c0.3,0.7,0.5,1.6,0.7,2.7c0.1,1.1,0.2,2.5,0.2,4.2c0,1.7-0.1,3.1-0.2,4.2	c-0.1,1.1-0.4,2-0.7,2.7c-0.3,0.7-0.7,1.2-1.1,1.5c-0.4,0.3-0.9,0.4-1.5,0.4h-34.4v32.1h41c0.5,0,1,0.2,1.5,0.5	c0.4,0.3,0.8,0.8,1.1,1.5c0.3,0.7,0.5,1.6,0.7,2.8c0.1,1.1,0.2,2.6,0.2,4.3C899.1,174.9,899,176.3,898.9,177.4z M1012.9,82.3	c-0.1,1.2-0.4,2.2-0.7,2.9c-0.3,0.7-0.7,1.3-1.1,1.6s-0.9,0.5-1.5,0.5h-28.5V179c0,0.6-0.2,1.1-0.6,1.6c-0.4,0.5-1,0.8-1.9,1.1	c-0.9,0.3-2.1,0.5-3.6,0.7s-3.4,0.3-5.6,0.3c-2.2,0-4.1-0.1-5.6-0.3s-2.7-0.4-3.6-0.7c-0.9-0.3-1.5-0.7-1.9-1.1	c-0.4-0.5-0.6-1-0.6-1.6V87.4h-28.5c-0.6,0-1.1-0.2-1.5-0.5c-0.4-0.4-0.8-0.9-1.1-1.6c-0.3-0.7-0.5-1.7-0.7-2.9	c-0.1-1.2-0.2-2.7-0.2-4.4c0-1.8,0.1-3.3,0.2-4.5c0.1-1.2,0.4-2.2,0.7-2.9c0.3-0.7,0.6-1.3,1.1-1.6c0.4-0.3,0.9-0.5,1.5-0.5h80.2	c0.5,0,1,0.2,1.5,0.5c0.4,0.3,0.8,0.9,1.1,1.6c0.3,0.7,0.5,1.7,0.7,2.9c0.1,1.2,0.2,2.7,0.2,4.5	C1013.2,79.7,1013.1,81.1,1012.9,82.3z"/></svg>